<svg width="155" height="46" viewBox="0 0 155 46" fill="none" xmlns="http://www.w3.org/2000/svg">
<path d="M19.3424 36.588C6.86887 36.588 0 28.6144 0 18.6951C0 7.81621 7.50624 0.5 19.3424 0.5C25.0788 0.5 29.061 2.35026 30.4832 3.01296L29.4614 8.31456C27.3649 7.25424 23.9357 5.81221 19.6216 5.81221C11.7045 5.81221 6.91096 10.8487 6.91096 18.5148C6.91096 25.5607 11.104 31.2864 19.6216 31.2864C24.6047 31.2864 28.3499 29.3301 29.7617 28.6144L30.831 33.9637C28.6344 34.9551 24.9366 36.588 19.3424 36.588Z" fill="white"/>
<path d="M40.3599 3.88281H33.6123L43.9577 26.3987H50.6633L40.3599 3.88281Z" fill="white"/>
<path d="M61.035 3.69727L41.9507 45.5004H48.6563L67.846 3.69727H61.035Z" fill="#00B5B4"/>
<path d="M74.1619 4.04102H80.1352V31.3178H96.9493V36.402H74.1671V4.04102H74.1619Z" fill="white"/>
<path d="M122.486 14.1659C124.351 15.9843 125.289 18.6828 125.289 22.2561V36.4008H119.547V22.993C119.547 20.8353 119.041 19.2077 118.03 18.1156C117.019 17.0234 115.581 16.4721 113.711 16.4721C111.598 16.4721 109.928 17.1136 108.706 18.3912C107.479 19.6689 106.868 21.5139 106.868 23.9155V36.3955H101.126V11.7112H106.594V14.9028C107.542 13.7629 108.738 12.8988 110.176 12.3156C111.614 11.7324 113.237 11.4355 115.043 11.4355C118.135 11.4355 120.616 12.3474 122.486 14.1659Z" fill="white"/>
<path d="M148.208 36.403L141.913 27.8515L135.576 36.403H129.239L138.795 23.8753L129.655 11.7188H136.04L142.055 19.809L148.071 11.7188H154.271L145.084 23.7852L154.687 36.4083H148.208V36.403Z" fill="white"/>
</svg>
