<svg width="196" height="46" viewBox="0 0 196 46" fill="none" xmlns="http://www.w3.org/2000/svg">
<path d="M19.4698 36.587C6.9141 36.587 0 28.6177 0 18.6972C0 7.81707 7.55567 0.5 19.4698 0.5C25.2439 0.5 29.2524 2.35048 30.684 3.01326L29.6554 8.31548C27.5451 7.25504 24.0933 5.81283 19.7508 5.81283C11.7815 5.81283 6.95652 10.8499 6.95652 18.517C6.95652 25.5636 11.1771 31.29 19.7508 31.29C24.7667 31.29 28.5366 29.3335 29.9576 28.6177L31.0339 33.9677C28.8229 34.9592 25.1007 36.5923 19.4698 36.5923V36.587Z" fill="white"/>
<path d="M40.6256 3.87695H33.8335L44.2471 26.3955H50.9968L40.6256 3.87695Z" fill="white"/>
<path d="M61.437 3.69141L42.2271 45.4995H48.9768L68.2928 3.69141H61.437Z" fill="#00B5B4"/>
<path d="M104.21 36.4273L104.162 14.8526L93.4675 32.7052H90.7687L80.0741 15.1283V36.422H74.3105V3.87695H79.284L92.2109 25.4517L104.904 3.87695H109.878L109.926 36.422H104.205L104.21 36.4273Z" fill="white"/>
<path d="M142.428 11.5966V36.4269H136.898V33.2191C135.938 34.3962 134.751 35.2816 133.34 35.8702C131.93 36.4587 130.371 36.7557 128.669 36.7557C126.251 36.7557 124.088 36.2307 122.184 35.1756C120.276 34.1204 118.791 32.6358 117.72 30.7111C116.649 28.7917 116.113 26.5595 116.113 24.0144C116.113 21.4693 116.649 19.2477 117.72 17.3442C118.791 15.4354 120.276 13.9561 122.184 12.9062C124.093 11.8511 126.251 11.3262 128.669 11.3262C130.281 11.3262 131.76 11.6072 133.107 12.1639C134.454 12.7207 135.625 13.5425 136.617 14.6295V11.6072H142.428V11.5966ZM134.618 29.6348C136.013 28.2085 136.712 26.3315 136.712 24.0091C136.712 21.6867 136.018 19.8097 134.618 18.3834C133.224 16.9571 131.458 16.2466 129.316 16.2466C127.174 16.2466 125.419 16.9624 124.04 18.3834C122.662 19.8097 121.972 21.6867 121.972 24.0091C121.972 26.3315 122.662 28.2085 124.04 29.6348C125.419 31.0611 127.179 31.7716 129.316 31.7716C131.453 31.7716 133.224 31.0611 134.618 29.6348Z" fill="white"/>
<path d="M164.422 11.3164V16.8466C163.923 16.7512 163.478 16.7088 163.075 16.7088C160.811 16.7088 159.045 17.3662 157.773 18.6865C156.5 20.0068 155.864 21.905 155.864 24.3811V36.4224H150.053V11.5974H155.588V15.2241C157.264 12.6208 160.207 11.3164 164.422 11.3164Z" fill="white"/>
<path d="M179.486 25.7805L175.159 29.8738V36.4273H169.348V3.87695H175.159V22.7529L187.2 11.5917H194.173L183.802 22.0053L195.148 36.4167H188.08L179.48 25.7698L179.486 25.7805Z" fill="white"/>
</svg>
