<svg width="227" height="46" viewBox="0 0 227 46" fill="none" xmlns="http://www.w3.org/2000/svg">
<path d="M79.4074 34.7312C76.7566 33.2891 74.6783 31.301 73.178 28.7563C71.6723 26.2168 70.9248 23.3486 70.9248 20.1571C70.9248 16.9655 71.6829 14.0973 73.2045 11.5579C74.7207 9.01841 76.8096 7.02501 79.4551 5.58298C82.1059 4.14094 85.0748 3.41992 88.3565 3.41992C91.0232 3.41992 93.4566 3.88646 95.6568 4.81424C97.857 5.74202 99.7178 7.09393 101.234 8.85937L97.3267 12.5334C94.9728 9.99391 92.0729 8.72152 88.6322 8.72152C86.4002 8.72152 84.4015 9.20927 82.636 10.1848C80.8706 11.1603 79.4921 12.5175 78.5007 14.2511C77.5094 15.9847 77.011 17.9569 77.011 20.1571C77.011 22.3572 77.504 24.3241 78.5007 26.0631C79.4921 27.7967 80.8706 29.1539 82.636 30.1294C84.4015 31.1049 86.4002 31.5926 88.6322 31.5926C92.0729 31.5926 94.9675 30.3043 97.3267 27.7331L101.234 31.4548C99.7178 33.2202 97.8463 34.5721 95.6303 35.4999C93.4142 36.4277 90.9754 36.8942 88.3087 36.8942C85.0217 36.8942 82.0582 36.1732 79.4074 34.7312Z" fill="white"/>
<path d="M109.929 35.1245C107.914 34.0377 106.339 32.5267 105.21 30.5916C104.081 28.6565 103.514 26.4617 103.514 24.0123C103.514 21.563 104.081 19.3787 105.21 17.4596C106.339 15.5404 107.914 14.0347 109.929 12.9479C111.943 11.8611 114.207 11.3203 116.715 11.3203C119.222 11.3203 121.534 11.8611 123.548 12.9479C125.563 14.0347 127.138 15.5351 128.267 17.4596C129.396 19.384 129.963 21.5683 129.963 24.0123C129.963 26.4564 129.396 28.6565 128.267 30.5916C127.138 32.5267 125.563 34.0377 123.548 35.1245C121.534 36.2113 119.254 36.7521 116.715 36.7521C114.175 36.7521 111.943 36.2113 109.929 35.1245ZM122.016 29.6373C123.411 28.2112 124.11 26.3344 124.11 24.0123C124.11 21.6902 123.416 19.8135 122.016 18.3873C120.622 16.9612 118.856 16.2508 116.715 16.2508C114.573 16.2508 112.818 16.9665 111.44 18.3873C110.061 19.8135 109.372 21.6902 109.372 24.0123C109.372 26.3344 110.061 28.2112 111.44 29.6373C112.818 31.0635 114.578 31.7739 116.715 31.7739C118.851 31.7739 120.622 31.0635 122.016 29.6373Z" fill="white"/>
<path d="M174.316 14.04C176.146 15.8532 177.057 18.5729 177.057 22.1992V36.4234H171.247V22.9414C171.247 20.7731 170.764 19.1349 169.805 18.0374C168.845 16.94 167.467 16.3886 165.67 16.3886C163.719 16.3886 162.149 17.0301 160.972 18.3184C159.795 19.6067 159.207 21.4411 159.207 23.8268V36.4234H153.396V22.9414C153.396 20.7731 152.914 19.1349 151.954 18.0374C150.995 16.94 149.616 16.3886 147.819 16.3886C145.836 16.3886 144.262 17.0248 143.101 18.2972C141.94 19.5696 141.356 21.4146 141.356 23.8321V36.4287H135.546V11.6013H141.081V14.7611C142.009 13.6477 143.175 12.7942 144.569 12.2057C145.964 11.6172 147.512 11.3203 149.219 11.3203C151.08 11.3203 152.728 11.6702 154.17 12.3647C155.612 13.0592 156.752 14.0931 157.59 15.4556C158.613 14.1514 159.928 13.1388 161.54 12.4124C163.151 11.6861 164.933 11.3203 166.884 11.3203C170.012 11.3203 172.493 12.2269 174.322 14.04H174.316Z" fill="white"/>
<path d="M223.272 14.04C225.101 15.8532 226.013 18.5729 226.013 22.1992V36.4234H220.202V22.9414C220.202 20.7731 219.72 19.1349 218.76 18.0374C217.8 16.94 216.422 16.3886 214.625 16.3886C212.674 16.3886 211.105 17.0301 209.928 18.3184C208.751 19.6067 208.162 21.4411 208.162 23.8268V36.4234H202.352V22.9414C202.352 20.7731 201.869 19.1349 200.91 18.0374C199.95 16.94 198.572 16.3886 196.774 16.3886C194.791 16.3886 193.217 17.0248 192.056 18.2972C190.895 19.5696 190.312 21.4146 190.312 23.8321V36.4287H184.501V11.6013H190.036V14.7611C190.964 13.6477 192.13 12.7942 193.524 12.2057C194.919 11.6172 196.467 11.3203 198.174 11.3203C200.035 11.3203 201.684 11.6702 203.126 12.3647C204.568 13.0592 205.707 14.0931 206.545 15.4556C207.568 14.1514 208.883 13.1388 210.495 12.4124C212.106 11.6861 213.888 11.3203 215.839 11.3203C218.967 11.3203 221.448 12.2269 223.277 14.04H223.272Z" fill="white"/>
<path d="M19.4675 36.588C6.91327 36.588 0 28.6144 0 18.6951C0 7.81621 7.55477 0.5 19.4675 0.5C25.2409 0.5 29.2489 2.35026 30.6804 3.01296L29.6519 8.31456C27.5419 7.25424 24.0905 5.81221 19.7485 5.81221C11.7802 5.81221 6.9557 10.8487 6.9557 18.5148C6.9557 25.5607 11.1758 31.2864 19.7485 31.2864C24.7638 31.2864 28.5332 29.3301 29.9541 28.6144L31.0303 33.9637C28.8195 34.9551 25.0978 36.588 19.4675 36.588Z" fill="white"/>
<path d="M40.6209 3.88281H33.8296L44.2419 26.3987H50.9909L40.6209 3.88281Z" fill="white"/>
<path d="M61.4299 3.69727L42.2222 45.5004H48.9711L68.2902 3.69727H61.4299Z" fill="#00B5B4"/>
</svg>
