<svg width="72" height="72" viewBox="0 0 72 72" fill="none" xmlns="http://www.w3.org/2000/svg">
<g clip-path="url(#clip0_1304_72855)">
<path d="M50.6947 39.7411C50.653 39.4973 50.7336 39.2487 50.911 39.076L61.1177 29.1268C61.9009 28.3635 62.1773 27.2431 61.8394 26.2031C61.5015 25.1631 60.6191 24.4191 59.5368 24.262L45.4315 22.2123C45.1867 22.1768 44.975 22.023 44.8657 21.8013L38.5576 9.01954C38.0736 8.03891 37.0935 7.42969 35.9999 7.42969C34.9062 7.42969 33.9263 8.03891 33.4423 9.01954L30.2649 15.4574C30.0082 15.9776 30.2218 16.6075 30.742 16.8642C31.2621 17.1209 31.8919 16.9073 32.1488 16.3872L35.3261 9.9492C35.5126 9.5712 35.8596 9.53031 35.9999 9.53031C36.1404 9.53031 36.4873 9.5712 36.6738 9.9492L42.982 22.7311C43.3978 23.5729 44.2004 24.1561 45.1295 24.2911L59.2349 26.3408C59.6521 26.4014 59.798 26.7186 59.8414 26.8522C59.885 26.9858 59.9532 27.3283 59.6514 27.6225L49.4446 37.5717C48.7722 38.2271 48.4657 39.1708 48.6245 40.0963L51.0339 54.1448C51.1052 54.5603 50.8486 54.7973 50.7349 54.8798C50.6212 54.9622 50.3171 55.1334 49.9436 54.9369L44.841 52.2544C44.3276 51.9846 43.6925 52.1818 43.4224 52.6952C43.1524 53.2088 43.3499 53.8438 43.8633 54.1138L48.9659 56.7963C49.3871 57.0176 49.8426 57.127 50.2959 57.127C50.8848 57.127 51.4698 56.9424 51.9696 56.5793C52.8543 55.9364 53.2892 54.8674 53.1043 53.7896L50.6947 39.7411Z" fill="#00BFBD"/>
<path d="M40.8469 50.1537L37.3274 48.3037C36.4962 47.8666 35.5039 47.8666 34.6729 48.3037L22.0567 54.9365C21.6837 55.1328 21.379 54.962 21.2652 54.8793C21.1517 54.7967 20.8951 54.5599 20.9664 54.1442L23.3758 40.0958C23.5345 39.1704 23.2279 38.2266 22.5555 37.5713L12.3488 27.6221C12.047 27.3278 12.1153 26.9854 12.1587 26.8518C12.2021 26.7182 12.3482 26.401 12.7654 26.3403L26.8708 24.2907C27.7999 24.1557 28.6028 23.5725 29.0183 22.7305L30.1548 20.4277C30.4115 19.9074 30.198 19.2776 29.6778 19.0209C29.1574 18.764 28.5276 18.9777 28.271 19.4979L27.1345 21.8007C27.025 22.0224 26.8135 22.1762 26.5687 22.2118L12.4632 24.2614C11.3809 24.4187 10.4987 25.1625 10.1608 26.2025C9.82281 27.2425 10.0994 28.3629 10.8824 29.1262L21.0892 39.0754C21.2664 39.2481 21.3472 39.4967 21.3053 39.7407L18.8959 53.7889C18.711 54.8669 19.1457 55.9357 20.0306 56.5786C20.5305 56.9419 21.1154 57.1265 21.7044 57.1263C22.1576 57.1263 22.6134 57.0169 23.0344 56.7957L35.6506 50.1628C35.8695 50.0477 36.1309 50.0477 36.3498 50.1628L39.8693 52.0131C40.3832 52.2831 41.018 52.0853 41.2879 51.572C41.5578 51.0588 41.3603 50.4236 40.8469 50.1537Z" fill="#00BFBD"/>
<path d="M5.48197 9.08439L14.0172 13.353C14.3464 13.5176 14.6983 13.5981 15.0472 13.5981C15.6029 13.5981 16.1505 13.3939 16.5845 12.9999C17.2908 12.3588 17.5261 11.3692 17.1838 10.4789L13.7602 1.57108C13.3227 0.432892 12.0278 -0.171708 10.8735 0.223656C7.89435 1.24365 5.723 3.2143 4.41983 6.081C3.91495 7.19174 4.3914 8.53903 5.48197 9.08439ZM6.33236 6.95044C7.40151 4.59828 9.10957 3.04806 11.5542 2.21126C11.5711 2.20537 11.589 2.20271 11.6074 2.20271C11.6865 2.20271 11.7718 2.25327 11.7994 2.32484L15.2231 11.2326C15.236 11.2662 15.2704 11.3557 15.1727 11.4444C15.0752 11.5332 14.9893 11.4903 14.957 11.4741L6.42158 7.20547C6.33727 7.16331 6.29301 7.03699 6.33236 6.95044Z" fill="#00BFBD"/>
<path d="M55.4158 12.9998C55.8498 13.3936 56.3974 13.598 56.9533 13.598C57.302 13.598 57.6543 13.5174 57.9832 13.3529L66.5185 9.08427C67.6089 8.53905 68.0854 7.19176 67.5808 6.08102C66.2776 3.21432 64.1063 1.24352 61.1271 0.223532C59.9728 -0.171552 58.6779 0.432908 58.2404 1.57096L54.8167 10.4788C54.4744 11.3691 54.7095 12.3587 55.4158 12.9998ZM56.7775 11.2325L60.2012 2.32457C60.2287 2.25301 60.314 2.20245 60.3931 2.20245C60.4116 2.20245 60.4296 2.20525 60.4464 2.21099C62.8909 3.04794 64.599 4.59816 65.6681 6.95003C65.7075 7.03658 65.6632 7.16305 65.5787 7.20521L57.0435 11.4738C57.0114 11.4899 56.9256 11.5329 56.8278 11.4441C56.7302 11.3556 56.7645 11.2661 56.7775 11.2325Z" fill="#00BFBD"/>
<path d="M16.584 58.9985C15.8776 58.3574 14.8699 58.2187 14.0167 58.6454L5.48149 62.9141C4.39091 63.4594 3.91446 64.8067 4.41934 65.9173C5.72251 68.784 7.89386 70.7548 10.873 71.7748C11.1128 71.8569 11.3586 71.8958 11.6017 71.8958C12.5283 71.8958 13.4133 71.329 13.7598 70.4274L17.1834 61.5196C17.5256 60.6293 17.2904 59.6397 16.584 58.9985ZM15.2226 60.766L11.7988 69.6739C11.7649 69.762 11.6433 69.8181 11.5535 69.7875C9.10908 68.9505 7.40102 67.4004 6.33188 65.0482C6.29252 64.9616 6.33678 64.8353 6.42123 64.7931L14.9565 60.5245C14.9736 60.516 15.0058 60.4999 15.0467 60.4999C15.083 60.4999 15.1262 60.5125 15.1722 60.5542C15.2698 60.6427 15.2355 60.7322 15.2226 60.766Z" fill="#00BFBD"/>
<path d="M66.5185 62.9139L65.0544 62.1816C64.5356 61.9221 63.9045 62.1324 63.6452 62.6512C63.3857 63.1701 63.5959 63.801 64.1149 64.0605L65.579 64.7928C65.6634 64.835 65.7076 64.9613 65.6682 65.0479C64.5992 67.4 62.8913 68.9503 60.4468 69.7871C60.3572 69.8179 60.2352 69.7616 60.2015 69.6735L56.7778 60.7657C56.7648 60.7321 56.7304 60.6426 56.8281 60.5539C56.9255 60.4654 57.0115 60.5083 57.0437 60.5244L60.0674 62.0365C60.5865 62.2962 61.2173 62.0857 61.4766 61.5668C61.7361 61.0479 61.5259 60.417 61.0069 60.1576L57.9832 58.6455C57.1301 58.2187 56.1223 58.3574 55.4161 58.9984C54.7096 59.6395 54.4744 60.6291 54.8166 61.5194L58.2403 70.4272C58.587 71.3289 59.4718 71.8957 60.3985 71.8957C60.6414 71.8957 60.8873 71.8567 61.1271 71.7747C64.1062 70.7547 66.2776 68.7839 67.5805 65.9172C68.0853 64.8067 67.609 63.4593 66.5185 62.9139Z" fill="#00BFBD"/>
<path d="M8.22349 36.017C8.23903 35.2799 7.83989 34.6155 7.18179 34.2831L3.2346 32.2896C2.77733 32.0587 2.23743 32.0223 1.75328 32.1898C1.26814 32.3576 0.881743 32.7048 0.665644 33.1675C-0.222138 35.0677 -0.221858 36.9082 0.666344 38.6382C1.00289 39.2936 1.66673 39.6737 2.35844 39.6737C2.62075 39.6737 2.88713 39.6189 3.14104 39.5038L7.10938 37.7054C7.78121 37.4009 8.20808 36.754 8.22349 36.017ZM2.45297 37.5092C1.98128 36.4833 1.98954 35.4167 2.47818 34.261L5.85621 35.9671L2.45297 37.5092Z" fill="#00BFBD"/>
<path d="M71.3345 33.1677C71.1184 32.705 70.7322 32.3578 70.247 32.1898C69.7629 32.0222 69.223 32.0588 68.7657 32.2897L64.8185 34.2832C64.1604 34.6157 63.7611 35.2799 63.7768 36.017C63.7924 36.7541 64.2191 37.401 64.8906 37.7053L68.8591 39.5039C69.113 39.619 69.3794 39.6736 69.6419 39.6736C70.3334 39.6736 70.9974 39.2935 71.3338 38.6382C72.2222 36.908 72.2224 35.0675 71.3345 33.1677ZM69.5475 37.5093L66.1444 35.967L69.5223 34.2611C70.0109 35.4168 70.0192 36.4832 69.5475 37.5093Z" fill="#00BFBD"/>
<path d="M24.9939 7.60956C25.125 8.072 25.546 8.37381 26.004 8.37381C26.0988 8.37381 26.1951 8.36093 26.2909 8.33376C26.849 8.17564 27.1732 7.59499 27.0151 7.03675L25.8855 3.05048C25.7274 2.49238 25.1468 2.16788 24.5885 2.32628C24.0304 2.48439 23.7061 3.06504 23.8643 3.62329L24.9939 7.60956Z" fill="#00BFBD"/>
<path d="M11.2704 18.9394C11.5071 18.4097 11.2697 17.7886 10.7402 17.5518L7.60724 16.1513C7.07714 15.9146 6.4563 16.1518 6.21961 16.6815C5.98293 17.2112 6.22031 17.8323 6.74984 18.0691L9.88278 19.4696C10.0221 19.5318 10.1676 19.5614 10.3109 19.5614C10.7124 19.5614 11.0959 19.3297 11.2704 18.9394Z" fill="#00BFBD"/>
<path d="M6.39743 47.8594C5.9123 48.1774 5.77687 48.8285 6.09492 49.3137C6.2966 49.6212 6.63202 49.7883 6.9743 49.7883C7.17191 49.7883 7.37163 49.7327 7.54921 49.6162L10.4191 47.7346C10.9043 47.4165 11.0397 46.7654 10.7216 46.2803C10.4036 45.7952 9.75235 45.6596 9.26736 45.9778L6.39743 47.8594Z" fill="#00BFBD"/>
<path d="M28.1402 63.1721C27.6299 62.8956 26.9927 63.085 26.7163 63.595L25.0812 66.6121C24.8048 67.1222 24.9941 67.7597 25.5042 68.036C25.6633 68.1223 25.8347 68.1632 26.0038 68.1632C26.3769 68.1632 26.738 67.964 26.9282 67.6131L28.5633 64.596C28.8396 64.086 28.6503 63.4485 28.1402 63.1721Z" fill="#00BFBD"/>
<path d="M45.7091 8.33467C45.8049 8.36184 45.9013 8.37473 45.9961 8.37473C46.4541 8.37473 46.8751 8.07278 47.0061 7.61047L48.1358 3.6242C48.294 3.0661 47.9697 2.48545 47.4116 2.32719C46.8533 2.16894 46.2727 2.49343 46.1146 3.0514L44.9849 7.03766C44.8267 7.59577 45.1509 8.17642 45.7091 8.33467Z" fill="#00BFBD"/>
<path d="M65.7806 16.6814C65.5439 16.1517 64.9224 15.9147 64.3931 16.1512L61.2602 17.5517C60.7305 17.7885 60.4931 18.4096 60.7299 18.9393C60.9045 19.3296 61.2878 19.5613 61.6894 19.5613C61.8327 19.5613 61.9782 19.5318 62.1176 19.4695L65.2505 18.069C65.78 17.8322 66.0174 17.2111 65.7806 16.6814Z" fill="#00BFBD"/>
<path d="M61.278 46.2802C60.96 46.7654 61.0954 47.4165 61.5805 47.7345L64.4505 49.6161C64.6282 49.7326 64.8278 49.7882 65.0254 49.7882C65.3675 49.7882 65.7031 49.6212 65.9047 49.3136C66.2228 48.8285 66.0874 48.1774 65.6022 47.8593L62.7323 45.9777C62.247 45.6597 61.5962 45.7951 61.278 46.2802Z" fill="#00BFBD"/>
<path d="M45.2846 63.5952C45.0084 63.0851 44.3709 62.8955 43.8607 63.1721C43.3506 63.4484 43.1613 64.0859 43.4376 64.596L45.0727 67.6131C45.2627 67.9641 45.6241 68.1632 45.9972 68.1632C46.1662 68.1632 46.3376 68.1223 46.4966 68.0362C47.0067 67.7597 47.196 67.1222 46.9197 66.6123L45.2846 63.5952Z" fill="#00BFBD"/>
</g>
<defs>
<clipPath id="clip0_1304_72855">
<rect width="72" height="72" fill="white"/>
</clipPath>
</defs>
</svg>
