<svg width="72" height="72" viewBox="0 0 72 72" fill="none" xmlns="http://www.w3.org/2000/svg">
<g clip-path="url(#clip0_1304_72876)">
<path d="M64.5426 11.3309L36.4181 0.080905C36.1496 -0.0256662 35.8506 -0.0256662 35.5821 0.080905L7.45709 11.3309C7.24843 11.4146 7.06961 11.5589 6.94361 11.745C6.81762 11.9312 6.75023 12.1509 6.75011 12.3757V32.3456C6.72943 41.1631 9.52131 49.7573 14.72 56.8793C19.9186 64.0013 27.2531 69.2797 35.6573 71.9474C35.8803 72.0185 36.1199 72.0185 36.3429 71.9474C44.7472 69.2797 52.0816 64.0013 57.2803 56.8793C62.4789 49.7573 65.2708 41.1631 65.2501 32.3456V12.3757C65.25 12.1508 65.1825 11.9311 65.0564 11.7449C64.9303 11.5587 64.7514 11.4145 64.5426 11.3309ZM63.0001 32.3456C63.0196 40.6242 60.4178 48.6966 55.5675 55.4057C50.7172 62.1147 43.8675 67.1161 36.0001 69.693C28.1327 67.116 21.2831 62.1146 16.4329 55.4056C11.5826 48.6965 8.98074 40.6242 9.00011 32.3456V13.1376L36.0001 2.3375L63.0001 13.1376V32.3456Z" fill="#00BFBD"/>
<path d="M35.582 4.92758L11.957 14.3775C11.7483 14.4611 11.5694 14.6053 11.4434 14.7916C11.3174 14.9778 11.25 15.1974 11.25 15.4223V32.3456C11.2634 39.9461 13.6062 47.3598 17.9627 53.5878C22.3192 59.8158 28.4799 64.5588 35.6149 67.1778C35.8636 67.2686 36.1364 67.2686 36.3851 67.1778C43.52 64.5587 49.6807 59.8157 54.0372 53.5877C58.3936 47.3597 60.7365 39.9461 60.75 32.3456V15.4223C60.75 15.1974 60.6825 14.9776 60.5564 14.7914C60.4303 14.6052 60.2513 14.461 60.0425 14.3775L36.418 4.92758C36.1495 4.82102 35.8505 4.82102 35.582 4.92758ZM58.5 16.1842V32.3456C58.4875 39.4147 56.3299 46.3135 52.3124 52.13C48.295 57.9465 42.6068 62.4068 36 64.9211C29.3932 62.4067 23.7052 57.9464 19.6877 52.1299C15.6702 46.3135 13.5126 39.4147 13.5 32.3456V16.1842L36 7.18417L58.5 16.1842Z" fill="#00BFBD"/>
<path d="M28.9204 31.8306C28.816 31.7261 28.692 31.6432 28.5555 31.5866C28.419 31.5301 28.2727 31.501 28.125 31.501C27.9773 31.501 27.831 31.5301 27.6945 31.5866C27.558 31.6432 27.434 31.7261 27.3296 31.8306L23.9546 35.2056C23.8501 35.31 23.7672 35.434 23.7107 35.5705C23.6541 35.707 23.625 35.8532 23.625 36.001C23.625 36.1487 23.6541 36.295 23.7107 36.4315C23.7672 36.568 23.8501 36.692 23.9546 36.7964L31.8296 44.6714C31.934 44.7759 32.058 44.8588 32.1945 44.9153C32.331 44.9719 32.4773 45.001 32.625 45.001C32.7727 45.001 32.919 44.9719 33.0555 44.9153C33.192 44.8588 33.316 44.7759 33.4204 44.6714L48.0454 30.0464C48.1499 29.942 48.2328 29.818 48.2893 29.6815C48.3459 29.545 48.375 29.3987 48.375 29.251C48.375 29.1032 48.3459 28.957 48.2893 28.8205C48.2328 28.684 48.1499 28.56 48.0454 28.4556L44.6704 25.0806C44.566 24.9761 44.442 24.8932 44.3055 24.8366C44.169 24.7801 44.0227 24.751 43.875 24.751C43.7273 24.751 43.581 24.7801 43.4445 24.8366C43.308 24.8932 43.184 24.9761 43.0796 25.0806L32.625 35.5351L28.9204 31.8306ZM43.875 27.4668L45.6592 29.2509L32.625 42.2851L26.3409 36.0009L28.125 34.2168L31.8297 37.9214C31.9341 38.0259 32.0581 38.1088 32.1946 38.1653C32.3311 38.2219 32.4773 38.251 32.6251 38.251C32.7728 38.251 32.9191 38.2219 33.0556 38.1653C33.192 38.1088 33.316 38.0259 33.4205 37.9214L43.875 27.4668Z" fill="#00BFBD"/>
<path d="M23.5448 15.8045C23.4336 15.5277 23.2172 15.3062 22.943 15.1887C22.6687 15.0712 22.3591 15.0673 22.082 15.1777L16.457 17.4277C16.2483 17.5115 16.0695 17.6557 15.9435 17.8419C15.8175 18.0281 15.7501 18.2477 15.75 18.4725V24.4689C15.75 24.7672 15.8685 25.0534 16.0795 25.2644C16.2905 25.4754 16.5766 25.5939 16.875 25.5939C17.1734 25.5939 17.4595 25.4754 17.6705 25.2644C17.8815 25.0534 18 24.7672 18 24.4689V19.2344L22.918 17.2673C23.1951 17.1564 23.4167 16.94 23.5342 16.6657C23.6518 16.3914 23.6556 16.0816 23.5448 15.8045Z" fill="#00BFBD"/>
<path d="M46.4086 52.5111C43.4187 55.8725 39.7116 58.5189 35.5612 60.2548C35.4252 60.3124 35.3018 60.3963 35.1982 60.5016C35.0946 60.6069 35.0127 60.7316 34.9572 60.8686C34.9018 61.0056 34.8739 61.1521 34.875 61.2999C34.8762 61.4476 34.9065 61.5937 34.9641 61.7297C35.0218 61.8658 35.1056 61.9891 35.211 62.0928C35.3163 62.1964 35.441 62.2783 35.5779 62.3337C35.7149 62.3892 35.8614 62.4171 36.0092 62.4159C36.1569 62.4147 36.303 62.3845 36.4391 62.3268C40.8975 60.4606 44.8797 57.6167 48.0917 54.0052C48.2898 53.782 48.3912 53.4892 48.3735 53.1913C48.3558 52.8934 48.2204 52.6147 47.9972 52.4166C47.774 52.2184 47.4813 52.1171 47.1833 52.1348C46.8854 52.1525 46.6067 52.2879 46.4086 52.5111Z" fill="#00BFBD"/>
</g>
<defs>
<clipPath id="clip0_1304_72876">
<rect width="72" height="72" fill="white"/>
</clipPath>
</defs>
</svg>
