<svg width="73" height="72" viewBox="0 0 73 72" fill="none" xmlns="http://www.w3.org/2000/svg">
<path d="M70.3905 69.0476C70.3905 69.513 70.0122 69.8913 69.5468 69.8913H3.45301C2.98754 69.8913 2.60926 69.513 2.60926 69.0476C2.60926 68.5821 2.98754 68.2038 3.45301 68.2038H69.5468C70.0122 68.2038 70.3905 68.5821 70.3905 69.0476ZM3.17739 58.9971C14.0491 62.7518 25.1627 64.6559 36.2186 64.6559C36.3536 64.6559 36.49 64.6559 36.625 64.6545C47.5361 64.608 58.7032 62.7054 69.8139 58.9999C70.2555 58.8523 70.4946 58.3741 70.3469 57.9326C70.1993 57.491 69.7211 57.252 69.2796 57.3996C47.148 64.781 25.0938 64.7824 3.72864 57.4024C3.28848 57.2505 2.80754 57.484 2.65567 57.9241C2.50379 58.3643 2.73723 58.8452 3.17739 58.9971ZM3.00864 48.0691C13.9029 54.829 25.0389 58.2715 36.1089 58.3024H36.2608C47.3815 58.3024 58.7271 54.8613 69.9813 48.0734C70.3807 47.8329 70.5086 47.314 70.2682 46.9146C70.0277 46.5152 69.5088 46.3873 69.1094 46.6277C47.1621 59.862 25.2204 59.8648 3.89598 46.6334C3.49942 46.3873 2.98051 46.5096 2.73442 46.9062C2.48973 47.3027 2.61207 47.823 3.00864 48.0691ZM13.6399 21.4137C13.6399 21.401 13.6385 21.3884 13.6385 21.3757V8.10211C13.6385 7.66336 13.9746 7.29773 14.4119 7.26117C26.2343 6.27398 30.0255 5.18555 36.1286 2.19586C36.3635 2.08055 36.6363 2.08055 36.8711 2.19586C42.9743 5.18414 46.7669 6.27398 58.5879 7.26117C59.0252 7.29773 59.3613 7.66336 59.3613 8.10211V21.3757C59.3613 21.3884 59.3613 21.401 59.3599 21.4137C59.021 28.8359 56.7288 35.4298 52.5466 41.0112C48.6822 46.1707 43.3975 50.2404 36.8374 53.1105C36.7291 53.157 36.6138 53.1809 36.4999 53.1809C36.386 53.1809 36.2693 53.157 36.1624 53.1105C29.6022 50.2404 24.3175 46.1693 20.4532 41.0112C16.271 35.4298 13.9788 28.8359 13.6399 21.4137ZM15.326 21.356C15.9532 34.9277 23.4682 45.5899 36.4999 51.416C49.5316 45.5899 57.0466 34.9277 57.6738 21.356V8.87695C46.4139 7.90242 42.4722 6.78586 36.4999 3.8918C30.5275 6.78586 26.5858 7.90242 15.326 8.87695V21.356ZM23.1419 37.6024C19.9019 32.907 18.1089 27.4296 17.8136 21.3195C17.8136 21.3054 17.8122 21.2927 17.8122 21.2787V11.9187C17.8122 11.4855 18.1413 11.1227 18.573 11.0791C22.5963 10.6784 25.6014 10.2087 28.3169 9.55758C30.8889 8.94023 33.378 8.06555 36.1497 6.80414C36.3719 6.70289 36.6264 6.70289 36.8486 6.80414C39.6204 8.06555 42.1094 8.94023 44.6814 9.55758C47.3969 10.2087 50.4021 10.6784 54.4254 11.0791C54.8571 11.1227 55.1861 11.4855 55.1861 11.9187V21.2787C55.1861 21.2927 55.1861 21.3054 55.1847 21.3195C54.8894 27.4296 53.0965 32.9084 49.8564 37.6024C46.7346 42.1263 42.3654 45.791 36.8711 48.4952C36.7544 48.5529 36.6264 48.5824 36.4985 48.5824C36.3705 48.5824 36.2439 48.5529 36.1258 48.4952C30.633 45.791 26.2638 42.1249 23.1419 37.6024ZM36.4999 46.7951C46.9188 41.5259 52.9502 32.4724 53.4986 21.2576V12.6795C49.7721 12.2871 46.9061 11.8259 44.2877 11.1973C41.7171 10.5813 39.2322 9.7193 36.4999 8.49727C33.7661 9.7207 31.2827 10.5813 28.7121 11.1973C26.0936 11.8245 23.2277 12.2871 19.5011 12.6795V21.2562C20.0496 32.4724 26.081 41.5259 36.4999 46.7951ZM28.0497 33.8309V24.9166C28.0497 23.734 28.9638 22.7623 30.1225 22.6666V19.999C30.1225 16.4834 32.9829 13.623 36.4985 13.623C40.0141 13.623 42.8744 16.4834 42.8744 19.999V22.6666C44.0332 22.7609 44.9472 23.7326 44.9472 24.9166V33.8309C44.9472 35.0768 43.9333 36.0893 42.6888 36.0893H30.3068C29.0636 36.0893 28.0497 35.0768 28.0497 33.8309ZM31.8114 20.0004V22.6582H41.1897V20.0004C41.1897 17.4143 39.086 15.312 36.5013 15.312C33.9166 15.312 31.8114 17.4157 31.8114 20.0004ZM29.7372 33.8309C29.7372 34.1402 29.9988 34.4018 30.3082 34.4018H42.6902C42.9996 34.4018 43.2611 34.1402 43.2611 33.8309V24.9166C43.2611 24.6073 42.9996 24.3457 42.6902 24.3457H30.3082C29.9988 24.3457 29.7372 24.6073 29.7372 24.9166V33.8309ZM34.1332 28.3423C34.1332 27.0373 35.1949 25.9755 36.4999 25.9755C37.8049 25.9755 38.8666 27.0373 38.8666 28.3423C38.8666 29.3491 38.2324 30.2098 37.3436 30.5501V31.9282C37.3436 32.3937 36.9654 32.772 36.4999 32.772C36.0344 32.772 35.6561 32.3937 35.6561 31.9282V30.5501C34.7674 30.2098 34.1332 29.3491 34.1332 28.3423ZM35.8207 28.3423C35.8207 28.7163 36.1258 29.0215 36.4999 29.0215C36.8739 29.0215 37.1791 28.7163 37.1791 28.3423C37.1791 27.9682 36.8739 27.663 36.4999 27.663C36.1258 27.663 35.8207 27.9682 35.8207 28.3423Z" fill="#00BFBD"/>
</svg>
