<svg width="72" height="72" viewBox="0 0 72 72" fill="none" xmlns="http://www.w3.org/2000/svg">
<g clip-path="url(#clip0_1304_72891)">
<path fill-rule="evenodd" clip-rule="evenodd" d="M35.9996 44.949C31.0637 44.949 27.0488 40.9341 27.0488 35.9996C27.0488 31.0651 31.0637 27.0488 35.9996 27.0488C40.9341 27.0488 44.949 31.0637 44.949 35.9996C44.949 40.9341 40.9341 44.949 35.9996 44.949ZM35.9996 28.7363C31.9946 28.7363 28.7363 31.9946 28.7363 35.9996C28.7363 40.0046 31.9946 43.2629 35.9996 43.2629C40.0046 43.2629 43.2615 40.0046 43.2615 35.9996C43.2615 31.9946 40.0046 28.7363 35.9996 28.7363Z" fill="#00BFBD"/>
<path fill-rule="evenodd" clip-rule="evenodd" d="M39.2205 53.6412H32.7799C32.3145 53.6412 31.9362 53.2643 31.9362 52.7975V49.2607C31.0938 49.0034 30.2768 48.6645 29.4977 48.2496L26.9946 50.7514C26.8371 50.9103 26.622 50.9989 26.3984 50.9989C26.1748 50.9989 25.9596 50.9103 25.8021 50.7514L21.2487 46.1979C20.9182 45.8689 20.9182 45.3345 21.2487 45.0054L23.7504 42.5023C23.3355 41.7232 22.9966 40.9062 22.7393 40.0639H19.2012C18.7357 40.0639 18.3574 39.6856 18.3574 39.2201V32.7795C18.3574 32.314 18.7357 31.9357 19.2012 31.9357H22.7393C22.9966 31.0934 23.3355 30.2764 23.7504 29.4973L21.2487 26.9956C20.9182 26.6665 20.9182 26.1321 21.2487 25.8017L25.8021 21.2482C26.1312 20.9192 26.6655 20.9192 26.9946 21.2482L29.4963 23.75C30.2768 23.3351 31.0924 22.9976 31.9362 22.7389V19.2021C31.9362 18.7353 32.3145 18.3584 32.7799 18.3584H39.2191C39.686 18.3584 40.0629 18.7353 40.0629 19.2021V22.7389C40.9066 22.9976 41.7237 23.3351 42.5027 23.75L45.0045 21.2482C45.3335 20.9192 45.8679 20.9192 46.197 21.2482L50.7518 25.8017C51.0809 26.1321 51.0809 26.6651 50.7518 26.9956L48.2501 29.4973C48.6635 30.2764 49.0024 31.0934 49.2612 31.9357H52.7979C53.2634 31.9357 53.6416 32.314 53.6416 32.7795V39.2201C53.6416 39.6856 53.2634 40.0639 52.7979 40.0639H49.2612C49.0024 40.9076 48.6635 41.7232 48.2501 42.5037L50.7518 45.004C50.9093 45.1629 50.9993 45.3781 50.9993 45.6017C50.9993 45.8253 50.9093 46.039 50.7518 46.1979L46.197 50.7514C45.8679 51.0818 45.3335 51.0818 45.0045 50.7514L42.5027 48.2496C41.7237 48.6645 40.9066 49.0034 40.0629 49.2607V52.7989C40.0643 53.2643 39.686 53.6412 39.2205 53.6412ZM33.6237 51.9537H38.3768V48.6209C38.3768 48.2356 38.6384 47.8995 39.0124 47.8039C40.1374 47.517 41.2146 47.0698 42.2159 46.475C42.5477 46.2781 42.971 46.3301 43.2438 46.6043L45.6021 48.9612L48.9616 45.6017L46.6048 43.2434C46.3305 42.9706 46.2785 42.5473 46.4754 42.2154C47.0702 41.2156 47.5174 40.137 47.8043 39.012C47.8985 38.6379 48.236 38.3764 48.6213 38.3764H51.9541V33.6232H48.6213C48.236 33.6232 47.8985 33.3617 47.8043 32.9876C47.5174 31.8626 47.0702 30.7854 46.4754 29.7842C46.2785 29.4523 46.3305 29.029 46.6034 28.7562L48.9616 26.3979L45.6007 23.0384L43.2438 25.3953C42.971 25.6681 42.5477 25.7215 42.2159 25.5246C41.2146 24.9298 40.1374 24.4826 39.011 24.1957C38.6384 24.1015 38.3754 23.764 38.3754 23.3787V20.0445H33.6237V23.3787C33.6237 23.764 33.3621 24.1001 32.988 24.1957C31.863 24.4826 30.7845 24.9298 29.7846 25.5246C29.4527 25.7215 29.0295 25.6681 28.7566 25.3953L26.3984 23.0384L23.0388 26.3979L25.3957 28.7562C25.6685 29.029 25.722 29.4523 25.5251 29.7842C24.9288 30.7854 24.483 31.8626 24.1962 32.9876C24.102 33.3617 23.7645 33.6232 23.3791 33.6232H20.0449V38.3764H23.3791C23.7645 38.3764 24.1005 38.6379 24.1962 39.012C24.483 40.137 24.9288 41.2142 25.5251 42.2154C25.722 42.5473 25.6685 42.9706 25.3957 43.2434L23.0374 45.6017L26.3984 48.9612L28.7566 46.6043C29.0295 46.3315 29.4527 46.2781 29.7846 46.475C30.7845 47.0698 31.863 47.517 32.988 47.8039C33.3621 47.8995 33.6237 48.2356 33.6237 48.6209V51.9537Z" fill="#00BFBD"/>
<path fill-rule="evenodd" clip-rule="evenodd" d="M49.4578 72C46.0167 72 43.2183 69.2002 43.2183 65.7605C43.2183 65.0756 43.3294 64.3992 43.5473 63.7594H27.1266C26.82 63.7594 26.5387 63.5934 26.3897 63.3248C26.2406 63.0577 26.2491 62.73 26.4108 62.4698C26.8566 61.7513 27.0928 60.9216 27.0928 60.0708C27.0928 57.5606 25.0509 55.5187 22.5408 55.5187C20.032 55.5187 17.9902 57.5606 17.9902 60.0708C17.9902 60.9216 18.2264 61.7513 18.6736 62.4698C18.8353 62.73 18.8423 63.0577 18.6933 63.3248C18.5456 63.5934 18.263 63.7594 17.9564 63.7594H13.8052C10.7367 63.7594 8.24062 61.2633 8.24062 58.1948V55.3683C7.60078 55.5848 6.92438 55.6973 6.23953 55.6973C2.79984 55.6973 0 52.8989 0 49.4578C0 46.0167 2.79984 43.2183 6.23953 43.2183C6.92438 43.2183 7.60078 43.3308 8.24062 43.5473V13.8052C8.24062 10.7367 10.7367 8.24062 13.8052 8.24062H16.6317C16.4152 7.60078 16.3027 6.92438 16.3027 6.23953C16.3027 2.79984 19.1011 0 22.5422 0C25.9819 0 28.7817 2.79984 28.7817 6.23953C28.7817 6.92438 28.6692 7.60078 28.4527 8.24062H44.8734C45.1786 8.24062 45.4613 8.40656 45.6103 8.67516C45.7594 8.94234 45.7509 9.27 45.5892 9.53016C45.142 10.2487 44.9058 11.0784 44.9058 11.9292C44.9058 14.4394 46.9477 16.4812 49.4578 16.4812C51.968 16.4812 54.0098 14.4394 54.0098 11.9292C54.0098 11.0784 53.7736 10.2487 53.3264 9.53016C53.1647 9.27 53.1562 8.94234 53.3053 8.67516C53.4544 8.40656 53.737 8.24062 54.0436 8.24062H58.1948C61.2633 8.24062 63.7594 10.7367 63.7594 13.8052V16.6317C64.3992 16.4152 65.0756 16.3027 65.7605 16.3027C69.2002 16.3027 72 19.1025 72 22.5422C72 25.9833 69.2002 28.7817 65.7605 28.7817C65.0742 28.7817 64.3992 28.6692 63.7594 28.4527V58.1948C63.7594 61.2633 61.2633 63.7594 58.1948 63.7594H55.3683C55.5848 64.3992 55.6973 65.0756 55.6973 65.7605C55.6973 69.2002 52.8975 72 49.4578 72ZM28.4527 62.0719H44.872C45.1786 62.0719 45.4613 62.2378 45.6103 62.505C45.7594 62.7736 45.7509 63.0998 45.5892 63.3614C45.142 64.08 44.9058 64.9097 44.9058 65.7605C44.9058 68.2706 46.9477 70.3125 49.4578 70.3125C51.968 70.3125 54.0098 68.2706 54.0098 65.7605C54.0098 64.9097 53.7736 64.08 53.3264 63.36C53.1647 63.0998 53.1562 62.7736 53.3053 62.505C53.4544 62.2378 53.737 62.0719 54.0436 62.0719H58.1948C60.3323 62.0719 62.0719 60.3323 62.0719 58.1948V27.128C62.0719 26.8214 62.2378 26.5387 62.505 26.3897C62.7736 26.2406 63.1012 26.2491 63.3614 26.4108C64.08 26.858 64.9097 27.0942 65.7605 27.0942C68.2706 27.0942 70.3125 25.0523 70.3125 22.5422C70.3125 20.032 68.2706 17.9902 65.7605 17.9902C64.9097 17.9902 64.08 18.2264 63.3614 18.6736C63.0998 18.8353 62.7736 18.8438 62.505 18.6947C62.2378 18.5456 62.0719 18.263 62.0719 17.9564V13.8052C62.0719 11.6677 60.3323 9.92812 58.1948 9.92812H55.3683C55.5848 10.5694 55.6973 11.2444 55.6973 11.9292C55.6973 15.3703 52.8975 18.1687 49.4578 18.1687C46.0167 18.1687 43.2183 15.3703 43.2183 11.9292C43.2183 11.2444 43.3308 10.5694 43.5473 9.92812H27.1266C26.82 9.92812 26.5387 9.76219 26.3897 9.495C26.2406 9.22641 26.2491 8.89875 26.4108 8.63859C26.858 7.92 27.0942 7.09031 27.0942 6.23953C27.0942 3.72937 25.0523 1.6875 22.5422 1.6875C20.032 1.6875 17.9902 3.72937 17.9902 6.23953C17.9902 7.09031 18.2264 7.92 18.6736 8.63859C18.8353 8.89875 18.8423 9.22641 18.6947 9.495C18.5456 9.76219 18.263 9.92812 17.9564 9.92812H13.8052C11.6677 9.92812 9.92812 11.6677 9.92812 13.8052V44.872C9.92812 45.1786 9.76219 45.4613 9.495 45.6103C9.22641 45.7594 8.89875 45.7509 8.63859 45.5892C7.92 45.142 7.09031 44.9058 6.23953 44.9058C3.72937 44.9058 1.6875 46.9477 1.6875 49.4578C1.6875 51.968 3.72937 54.0098 6.23953 54.0098C7.09031 54.0098 7.92 53.7736 8.63859 53.3264C8.89875 53.1647 9.22641 53.1562 9.495 53.3053C9.76219 53.4544 9.92812 53.737 9.92812 54.0436V58.1948C9.92812 60.3323 11.6677 62.0719 13.8038 62.0719H16.6317C16.4137 61.4306 16.3027 60.7556 16.3027 60.0708C16.3027 56.6297 19.1011 53.8312 22.5422 53.8312C25.9819 53.8312 28.7817 56.6297 28.7817 60.0708C28.7817 60.7556 28.6692 61.4306 28.4527 62.0719Z" fill="#00BFBD"/>
<path fill-rule="evenodd" clip-rule="evenodd" d="M62.9147 36.8438H52.7968C52.3313 36.8438 51.953 36.4655 51.953 36C51.953 35.5345 52.3313 35.1562 52.7968 35.1562H62.9147C63.3802 35.1562 63.7585 35.5345 63.7585 36C63.7585 36.4655 63.3802 36.8438 62.9147 36.8438ZM19.2015 36.8438H9.0835C8.61803 36.8438 8.23975 36.4655 8.23975 36C8.23975 35.5345 8.61803 35.1562 9.0835 35.1562H19.2015C19.6669 35.1562 20.0452 35.5345 20.0452 36C20.0452 36.4655 19.6669 36.8438 19.2015 36.8438Z" fill="#00BFBD"/>
<path fill-rule="evenodd" clip-rule="evenodd" d="M36 63.758C35.5331 63.758 35.1562 63.3797 35.1562 62.9143V52.7977C35.1562 52.3308 35.5331 51.9539 36 51.9539C36.4655 51.9539 36.8438 52.3308 36.8438 52.7977V62.9143C36.8438 63.3797 36.4655 63.758 36 63.758ZM36 20.0447C35.5331 20.0447 35.1562 19.6664 35.1562 19.201V9.08301C35.1562 8.61754 35.5331 8.23926 36 8.23926C36.4655 8.23926 36.8438 8.61754 36.8438 9.08301V19.201C36.8438 19.6664 36.4655 20.0447 36 20.0447Z" fill="#00BFBD"/>
</g>
<defs>
<clipPath id="clip0_1304_72891">
<rect width="72" height="72" fill="white"/>
</clipPath>
</defs>
</svg>
