<svg width="16" height="17" viewBox="0 0 16 17" fill="none" xmlns="http://www.w3.org/2000/svg">
<g clip-path="url(#clip0_1697_58052)">
<path d="M12.6627 0.616996C11.8804 0.535469 11.0941 0.495793 10.3074 0.498146C7.69939 0.498146 6.07857 2.13006 6.07857 4.75696V6.54049H3.88776C3.78492 6.54049 3.68629 6.58062 3.61357 6.65206C3.54085 6.7235 3.5 6.82039 3.5 6.92142V9.85459C3.5 9.95562 3.54085 10.0525 3.61357 10.124C3.68629 10.1954 3.78492 10.2355 3.88776 10.2355H6.07857V16.1171C6.07857 16.2181 6.11942 16.315 6.19214 16.3865C6.26486 16.4579 6.36349 16.498 6.46633 16.498H9.55131C9.65415 16.498 9.75277 16.4579 9.82549 16.3865C9.89821 16.315 9.93906 16.2181 9.93906 16.1171V10.2355H12.1229C12.217 10.2356 12.308 10.202 12.3788 10.141C12.4495 10.08 12.4953 9.99581 12.5076 9.90412L12.893 6.97094C12.9002 6.91718 12.8956 6.86253 12.8795 6.81065C12.8635 6.75877 12.8363 6.71086 12.7999 6.67011C12.7635 6.62936 12.7187 6.59672 12.6684 6.57436C12.6181 6.55201 12.5635 6.54046 12.5083 6.54049H9.93906V5.048C9.93906 4.30899 10.0903 4.00043 11.031 4.00043H12.6122C12.7151 4.00043 12.8137 3.9603 12.8864 3.88886C12.9591 3.81742 13 3.72053 13 3.6195V0.994881C13 0.902397 12.9658 0.813055 12.9038 0.743523C12.8417 0.673992 12.756 0.629019 12.6627 0.616996ZM12.2245 3.23781L11.0302 3.23857C9.35743 3.23857 9.16355 4.27166 9.16355 5.048V6.92218C9.16355 7.02308 9.2043 7.11985 9.27685 7.19127C9.3494 7.26269 9.44783 7.30291 9.55053 7.30311H12.0678L11.7817 9.47442H9.55131C9.44847 9.47442 9.34984 9.51456 9.27712 9.586C9.2044 9.65744 9.16355 9.75433 9.16355 9.85536V15.7354H6.85408V9.85536C6.85408 9.75433 6.81323 9.65744 6.74051 9.586C6.66779 9.51456 6.56917 9.47442 6.46633 9.47442H4.27629V7.30311H6.46633C6.56917 7.30311 6.66779 7.26298 6.74051 7.19154C6.81323 7.1201 6.85408 7.02321 6.85408 6.92218V4.75696C6.85408 2.56737 8.14531 1.26001 10.3074 1.26001C11.0899 1.26001 11.7964 1.30191 12.2245 1.33848V3.23781Z" fill="white"/>
</g>
<defs>
<clipPath id="clip0_1697_58052">
<rect width="16" height="16" fill="white" transform="translate(0 0.5)"/>
</clipPath>
</defs>
</svg>
