<svg width="16" height="17" viewBox="0 0 16 17" fill="none" xmlns="http://www.w3.org/2000/svg">
<path d="M8.00065 11.1654C8.70789 11.1654 9.38617 10.8844 9.88627 10.3843C10.3864 9.88422 10.6673 9.20594 10.6673 8.4987C10.6673 7.79145 10.3864 7.11318 9.88627 6.61308C9.38617 6.11298 8.70789 5.83203 8.00065 5.83203C7.29341 5.83203 6.61513 6.11298 6.11503 6.61308C5.61494 7.11318 5.33398 7.79145 5.33398 8.4987C5.33398 9.20594 5.61494 9.88422 6.11503 10.3843C6.61513 10.8844 7.29341 11.1654 8.00065 11.1654Z" stroke="white" stroke-linecap="round" stroke-linejoin="round"/>
<path d="M2 11.1667V5.83333C2 4.94928 2.35119 4.10143 2.97631 3.47631C3.60143 2.85119 4.44928 2.5 5.33333 2.5H10.6667C11.5507 2.5 12.3986 2.85119 13.0237 3.47631C13.6488 4.10143 14 4.94928 14 5.83333V11.1667C14 12.0507 13.6488 12.8986 13.0237 13.5237C12.3986 14.1488 11.5507 14.5 10.6667 14.5H5.33333C4.44928 14.5 3.60143 14.1488 2.97631 13.5237C2.35119 12.8986 2 12.0507 2 11.1667Z" stroke="white"/>
<path d="M11.666 4.83936L11.6727 4.83203" stroke="white" stroke-linecap="round" stroke-linejoin="round"/>
</svg>
