<svg width="16" height="17" viewBox="0 0 16 17" fill="none" xmlns="http://www.w3.org/2000/svg">
<g clip-path="url(#clip0_1697_58055)">
<path d="M15.5906 16.1636H12.3402C12.1102 16.1636 11.9244 15.9778 11.9244 15.7479V10.5132C11.9244 8.71795 10.9984 8.71795 10.6929 8.71795C9.87088 8.71795 9.52127 9.36678 9.40788 9.64711C9.35433 9.77311 9.32913 9.98727 9.32913 10.2865V15.7511C9.32913 15.981 9.14331 16.1668 8.91341 16.1668H5.65986C5.54963 16.1668 5.44253 16.1227 5.3638 16.044C5.28506 15.9653 5.24097 15.8581 5.24411 15.7479C5.24411 15.6597 5.2882 6.88177 5.24411 5.98413C5.23781 5.87073 5.27875 5.7605 5.3575 5.67861C5.43625 5.59672 5.54333 5.54947 5.65984 5.54947H8.91341C9.14331 5.54947 9.32914 5.73528 9.32914 5.9652V6.21087C9.87717 5.72269 10.6677 5.31953 11.8457 5.31953C14.4504 5.31953 16.0063 7.12109 16.0063 10.1384V15.7479C16.0063 15.9778 15.8205 16.1636 15.5906 16.1636ZM12.7559 15.3321L15.178 15.3321V10.1384C15.178 7.60294 13.9654 6.15098 11.8488 6.15098C10.4347 6.15098 9.74805 6.8565 9.31655 7.50217C9.26616 7.67225 9.10552 7.79825 8.91655 7.79825H8.89452C8.74331 7.79825 8.60474 7.71634 8.53231 7.58408C8.47563 7.48012 8.46302 7.36044 8.50081 7.2502V6.37778H6.08506C6.10711 8.11322 6.08506 13.729 6.07877 15.329H8.49766V10.2833C8.49766 9.86441 8.54175 9.56205 8.63624 9.33213C9.00159 8.42819 9.77008 7.88331 10.6898 7.88331C12 7.88331 12.7528 8.84081 12.7528 10.5101V15.3321H12.7559L12.7559 15.3321ZM3.86144 16.1635H0.607891C0.377969 16.1635 0.192156 15.9777 0.192156 15.7478V5.96517C0.192156 5.73525 0.377969 5.54942 0.607891 5.54942H3.86144C4.09136 5.54942 4.27717 5.73525 4.27717 5.96516V15.7478C4.27717 15.9778 4.09136 16.1636 3.86144 16.1636V16.1635ZM1.02366 15.3321H3.44569V6.38089H1.02367L1.02366 15.3321ZM2.23623 5.04547L2.21417 5.04545C0.932281 5.04545 0 4.15727 0 2.93522C0 1.71633 0.948031 0.828125 2.25827 0.828125C3.54645 0.828125 4.46616 1.69111 4.49136 2.92577C4.49136 4.15727 3.54333 5.04547 2.23623 5.04547ZM2.25827 1.66278C1.40472 1.66278 0.8315 2.17617 0.8315 2.93839C0.8315 3.68798 1.39844 4.21397 2.21419 4.21397H2.23622C3.08663 4.21397 3.65984 3.70058 3.65984 2.93837C3.64409 2.16672 3.09292 1.66278 2.25827 1.66278Z" fill="white"/>
</g>
<defs>
<clipPath id="clip0_1697_58055">
<rect width="16" height="16" fill="white" transform="translate(0 0.5)"/>
</clipPath>
</defs>
</svg>
