<svg width="16" height="17" viewBox="0 0 16 17" fill="none" xmlns="http://www.w3.org/2000/svg">
<path d="M9.33333 8.4974L7 9.83073V7.16406L9.33333 8.4974Z" fill="white" stroke="white" stroke-linecap="round" stroke-linejoin="round"/>
<path d="M1.33301 8.97096V8.02696C1.33301 6.09696 1.33301 5.13163 1.93634 4.51096C2.54034 3.88963 3.49101 3.86296 5.39167 3.80896C6.29167 3.78363 7.21167 3.76562 7.99967 3.76562C8.78767 3.76562 9.70701 3.78363 10.6077 3.80896C12.5083 3.86296 13.459 3.88963 14.0623 4.51096C14.6657 5.13229 14.6663 6.09762 14.6663 8.02696V8.97029C14.6663 10.901 14.6663 11.8656 14.063 12.487C13.459 13.1076 12.509 13.135 10.6077 13.1883C9.70767 13.2143 8.78767 13.2323 7.99967 13.2323C7.21167 13.2323 6.29234 13.2143 5.39167 13.1883C3.49101 13.135 2.54034 13.1083 1.93634 12.487C1.33234 11.8656 1.33301 10.9003 1.33301 8.97096Z" stroke="white"/>
</svg>
