<svg width="16" height="16" viewBox="0 0 16 16" fill="none" xmlns="http://www.w3.org/2000/svg">
<g clip-path="url(#clip0_2973_18926)">
<path d="M15.5906 15.6636H12.3402C12.1102 15.6636 11.9244 15.4778 11.9244 15.2479V10.0132C11.9244 8.21795 10.9984 8.21795 10.6929 8.21795C9.87088 8.21795 9.52127 8.86678 9.40788 9.14711C9.35433 9.27311 9.32913 9.48727 9.32913 9.7865V15.2511C9.32913 15.481 9.14331 15.6668 8.91341 15.6668H5.65986C5.54963 15.6668 5.44253 15.6227 5.3638 15.544C5.28506 15.4653 5.24097 15.3581 5.24411 15.2479C5.24411 15.1597 5.2882 6.38177 5.24411 5.48413C5.23781 5.37073 5.27875 5.2605 5.3575 5.17861C5.43625 5.09672 5.54333 5.04947 5.65984 5.04947H8.91341C9.14331 5.04947 9.32914 5.23528 9.32914 5.4652V5.71087C9.87717 5.22269 10.6677 4.81953 11.8457 4.81953C14.4504 4.81953 16.0063 6.62109 16.0063 9.63842V15.2479C16.0063 15.4778 15.8205 15.6636 15.5906 15.6636ZM12.7559 14.8321L15.178 14.8321V9.63838C15.178 7.10294 13.9654 5.65098 11.8488 5.65098C10.4347 5.65098 9.74805 6.3565 9.31655 7.00217C9.26616 7.17225 9.10552 7.29825 8.91655 7.29825H8.89452C8.74331 7.29825 8.60474 7.21634 8.53231 7.08408C8.47563 6.98012 8.46302 6.86044 8.50081 6.7502V5.87778H6.08506C6.10711 7.61322 6.08506 13.229 6.07877 14.829H8.49766V9.7833C8.49766 9.36441 8.54175 9.06205 8.63624 8.83213C9.00159 7.92819 9.77008 7.38331 10.6898 7.38331C12 7.38331 12.7528 8.34081 12.7528 10.0101V14.8321H12.7559L12.7559 14.8321ZM3.86144 15.6635H0.607891C0.377969 15.6635 0.192156 15.4777 0.192156 15.2478V5.46517C0.192156 5.23525 0.377969 5.04942 0.607891 5.04942H3.86144C4.09136 5.04942 4.27717 5.23525 4.27717 5.46516V15.2478C4.27717 15.4778 4.09136 15.6636 3.86144 15.6636V15.6635ZM1.02366 14.8321H3.44569V5.88089H1.02367L1.02366 14.8321ZM2.23623 4.54547L2.21417 4.54545C0.932281 4.54545 0 3.65727 0 2.43522C0 1.21633 0.948031 0.328125 2.25827 0.328125C3.54645 0.328125 4.46616 1.19111 4.49136 2.42577C4.49136 3.65727 3.54333 4.54547 2.23623 4.54547ZM2.25827 1.16278C1.40472 1.16278 0.8315 1.67617 0.8315 2.43839C0.8315 3.18798 1.39844 3.71397 2.21419 3.71397H2.23622C3.08663 3.71397 3.65984 3.20058 3.65984 2.43837C3.64409 1.66672 3.09292 1.16278 2.25827 1.16278Z" fill="white"/>
</g>
<defs>
<clipPath id="clip0_2973_18926">
<rect width="16" height="16" fill="white"/>
</clipPath>
</defs>
</svg>
