<svg width="16" height="16" viewBox="0 0 16 16" fill="none" xmlns="http://www.w3.org/2000/svg">
<path d="M9.33284 7.99837L6.99951 9.33171V6.66504L9.33284 7.99837Z" fill="white" stroke="white" stroke-linecap="round" stroke-linejoin="round"/>
<path d="M1.33301 8.47096V7.52696C1.33301 5.59696 1.33301 4.63163 1.93634 4.01096C2.54034 3.38963 3.49101 3.36296 5.39167 3.30896C6.29167 3.28363 7.21167 3.26562 7.99967 3.26562C8.78767 3.26562 9.70701 3.28363 10.6077 3.30896C12.5083 3.36296 13.459 3.38963 14.0623 4.01096C14.6657 4.63229 14.6663 5.59762 14.6663 7.52696V8.47029C14.6663 10.401 14.6663 11.3656 14.063 11.987C13.459 12.6076 12.509 12.635 10.6077 12.6883C9.70767 12.7143 8.78767 12.7323 7.99967 12.7323C7.21167 12.7323 6.29234 12.7143 5.39167 12.6883C3.49101 12.635 2.54034 12.6083 1.93634 11.987C1.33234 11.3656 1.33301 10.4003 1.33301 8.47096Z" stroke="white"/>
</svg>
