<svg width="20" height="20" viewBox="0 0 20 20" fill="none" xmlns="http://www.w3.org/2000/svg">
<path d="M13.7367 9.97967L18.8625 5.52634V14.3822L13.7367 9.97967ZM7.13167 10.7338L8.93167 12.2963C9.21417 12.5363 9.5825 12.6813 9.985 12.6813H9.99917H10.01C10.4133 12.6813 10.7817 12.5355 11.0675 12.2938L11.065 12.2955L12.865 10.733L18.3367 15.4322H1.6625L7.13167 10.7338ZM1.655 4.47051H18.3467L10.3292 11.4338C10.239 11.5051 10.1274 11.5439 10.0125 11.5438H10.0008H9.99C9.87466 11.544 9.76269 11.5049 9.6725 11.433L9.67333 11.4338L1.655 4.47051ZM1.1375 5.52551L6.2625 9.97884L1.1375 14.3788V5.52551ZM19.1375 3.49134C18.9375 3.39134 18.7025 3.33301 18.4533 3.33301H1.54917C1.30763 3.33307 1.06942 3.38927 0.853333 3.49717L0.8625 3.49301C0.603811 3.6206 0.385956 3.81799 0.233545 4.06288C0.0811339 4.30777 0.000239457 4.5904 0 4.87884L0 15.0222C0.00044117 15.4327 0.16371 15.8263 0.453984 16.1165C0.744257 16.4068 1.13783 16.5701 1.54833 16.5705H18.4508C18.8613 16.5701 19.2549 16.4068 19.5452 16.1165C19.8355 15.8263 19.9987 15.4327 19.9992 15.0222V4.87884C19.9992 4.27301 19.65 3.74801 19.1417 3.49551L19.1325 3.49134H19.1375Z" fill="#00BFBD"/>
</svg>
