<svg width="178" height="56" viewBox="0 0 178 56" fill="none" xmlns="http://www.w3.org/2000/svg">
<g clip-path="url(#clip0_2937_14670)">
<path d="M79.8317 28.0004C72.9667 28.0004 69.189 23.6405 69.189 18.2185C69.189 12.2702 73.3197 8.26953 79.8317 8.26953C82.9871 8.26953 85.1795 9.28208 85.9629 9.64128L85.3993 12.5396C84.2443 11.9605 82.3585 11.1709 79.9866 11.1709C75.6297 11.1709 72.9915 13.9268 72.9915 18.1164C72.9915 21.9684 75.2984 25.0989 79.9866 25.0989C82.7301 25.0989 84.7893 24.0307 85.5665 23.6405L86.1549 26.5636C84.9472 27.1055 82.9128 27.9973 79.8317 27.9973V28.0004Z" fill="white"/>
<path d="M96.596 14.8516L92.4095 25.7202L89.1055 14.8516H85.5352L89.7031 27.6432H91.6477L89.2417 33.3531H92.524L100.073 14.8516H96.596Z" fill="white"/>
<path d="M158.131 14.8515H161.538L161.615 16.4865H161.664C162.07 15.9229 163.234 14.5078 165.659 14.5078C168.539 14.5078 170.641 16.7435 170.641 20.2116V27.6402H167.148V20.3726C167.148 18.1989 166.015 17.0872 164.393 17.0872C162.77 17.0872 161.624 18.267 161.624 20.3726V27.6402H158.134V14.8546L158.131 14.8515Z" fill="white"/>
<path d="M117.464 21.1878C117.464 17.1407 119.966 14.5117 123.899 14.5117C127.832 14.5117 130.495 16.7536 130.495 21.3891C130.495 21.5904 130.47 22.0177 130.442 22.1942H120.821C121.103 24.0986 122.45 25.4208 125.147 25.4208C126.608 25.4208 127.968 25.0833 129.07 24.4051L129.123 27.1672C127.996 27.6936 126.485 27.9971 124.819 27.9971C120.49 27.9971 117.464 25.5354 117.464 21.1878ZM127.104 19.8811C126.924 17.7817 125.71 16.8682 123.952 16.8682C122.193 16.8682 121.059 17.7848 120.827 19.8811H127.104Z" fill="white"/>
<path d="M132.522 14.8531H135.935L136.012 16.6739H136.062C136.495 15.683 137.536 14.5156 139.49 14.5156C139.892 14.5156 140.564 14.6147 140.898 14.72L140.533 17.4418C140.329 17.3737 139.74 17.2653 139.229 17.2653C137.266 17.2653 136.009 18.5969 136.009 21.9628V27.6418H132.516V14.8562L132.522 14.8531Z" fill="white"/>
<path d="M176.808 14.8535H173.315V27.6391H176.808V14.8535Z" fill="white"/>
<path d="M175.05 12.31C176.201 12.31 177.134 11.4033 177.134 10.2849C177.134 9.16645 176.201 8.25977 175.05 8.25977C173.899 8.25977 172.966 9.16645 172.966 10.2849C172.966 11.4033 173.899 12.31 175.05 12.31Z" fill="white"/>
<path d="M147.091 28.0004C143.713 28.0004 140.938 25.647 140.938 21.2685C140.938 17.1285 143.375 14.4902 147.178 14.4902C149.912 14.4902 151.34 16.0757 151.665 16.4318H151.721L151.789 14.8525H155.189V27.6381H151.789L151.721 26.0589H151.665C151.064 26.7122 149.72 28.0004 147.088 28.0004H147.091ZM148.163 25.4117C149.971 25.4117 151.783 24.1143 151.783 21.2407C151.783 18.5622 150.11 17.082 148.16 17.082C146.364 17.082 144.546 18.3609 144.546 21.2407C144.546 24.1204 146.333 25.4117 148.163 25.4117Z" fill="white"/>
<path d="M104.899 26.0577H104.843L104.775 27.6369H101.372V8.68945H104.864V16.3997H104.92C105.258 16.0529 106.763 14.5078 109.351 14.5078C113.154 14.5078 115.625 17.1243 115.625 21.2643C115.625 25.6427 112.85 27.9961 109.472 27.9961C106.84 27.9961 105.499 26.7079 104.895 26.0546L104.899 26.0577ZM112.021 21.2426C112.021 18.3629 110.175 17.0964 108.404 17.0964C106.45 17.0964 104.784 18.5611 104.784 21.2426C104.784 24.1162 106.592 25.4136 108.404 25.4136C110.237 25.4136 112.021 24.1069 112.021 21.2426Z" fill="white"/>
<path d="M52.5018 37.79L46.0579 20.8801L38.6572 4.36962L21.7471 10.8103L5.23325 18.2109L11.6771 35.1208L19.0778 51.6313L35.988 45.1906L52.5018 37.79ZM54.7375 38.7159L36.2326 45.7821L18.152 53.8701L11.0857 35.3655L2.99756 17.2851L21.5024 10.2189L39.5831 2.13086L46.6494 20.6324L54.7375 38.7128V38.7159Z" fill="white"/>
<path d="M54.4491 27.9984L42.0258 14.8415L28.8655 2.41836L15.7084 14.8415L3.28509 27.9984L15.7084 41.1554L28.8655 53.5785L42.0227 41.1554L54.446 27.9984H54.4491ZM56.8675 27.9984L42.4748 41.6075L28.8655 56L15.2563 41.6106L0.866699 27.9984L15.2594 14.3894L28.8655 0L42.4748 14.3894L56.8675 27.9984Z" fill="white"/>
<path d="M52.5018 18.2109L35.988 10.8072L19.0778 4.36652L11.6771 20.8801L5.23635 37.79L21.7501 45.1906L38.6603 51.6313L46.0641 35.1178L52.5049 18.2078L52.5018 18.2109ZM54.7375 17.2851L46.6494 35.3655L39.5831 53.8701L21.5024 45.7821L2.99756 38.7159L11.0857 20.6355L18.152 2.13086L36.2326 10.2158L54.7375 17.282V17.2851Z" fill="white"/>
<path d="M46.9549 46.0879L47.4751 27.9982L46.9549 9.91158L28.8681 9.39137L10.7781 9.91158L10.2579 28.0013L10.7781 46.0879L28.8681 46.6081L46.9549 46.0879ZM48.6673 47.7971L28.8681 47.2428L9.06885 47.7971L9.62003 27.9982L9.06885 8.19922L28.8681 8.75349L48.6673 8.19922L48.1161 27.9982L48.6673 47.7971Z" fill="white"/>
<path d="M121.92 40.1797C119.991 40.1797 118.415 41.7589 118.415 43.6912C118.415 45.6234 119.991 47.2026 121.92 47.2026C123.849 47.2026 125.407 45.6234 125.407 43.6912C125.407 41.7589 123.849 40.1797 121.92 40.1797ZM121.92 45.6048C120.855 45.6048 120.01 44.7378 120.01 43.6912C120.01 42.6445 120.858 41.7992 121.92 41.7992C122.982 41.7992 123.812 42.6476 123.812 43.6912C123.812 44.7347 122.964 45.6048 121.92 45.6048Z" fill="white"/>
<path d="M109.078 40.0996C108.31 40.0996 107.52 40.2575 106.892 40.5145C106.378 40.2173 105.885 40.0996 105.176 40.0996C104.291 40.0996 103.383 40.2173 102.399 40.5517L102.222 40.6105V47.0606H103.975V41.7748C104.331 41.6572 104.606 41.6169 104.96 41.6169C105.827 41.6169 106.084 41.8925 106.084 42.7998V47.0606H107.858V42.6821C107.858 42.2889 107.839 42.0318 107.78 41.7934C108.133 41.6757 108.412 41.6169 108.725 41.6169C109.552 41.6169 109.926 41.9916 109.926 42.7998V47.0606H111.679V42.6635C111.679 41.7965 111.543 41.2825 111.146 40.849C110.713 40.3752 109.985 40.0996 109.078 40.0996Z" fill="white"/>
<path d="M116.105 45.6743C114.937 45.6743 114.266 44.9497 114.266 43.6802C114.266 42.4106 114.944 41.6364 116.12 41.6364C116.365 41.6364 116.572 41.6612 116.768 41.72C116.768 41.72 117.13 41.8222 117.449 42.0731L118.192 40.8004C117.789 40.4629 117.312 40.3173 117.148 40.2771C116.693 40.1408 116.024 40.1191 116.024 40.1191C113.916 40.1191 112.5 41.5838 112.5 43.7576C112.5 45.9313 113.841 47.2009 115.922 47.2009C115.922 47.2009 117.316 47.2628 118.251 46.3927L117.378 45.2718C116.904 45.5721 116.576 45.6743 116.099 45.6743H116.105Z" fill="white"/>
<path d="M93.2491 40.1621C90.7471 40.1621 89.5859 41.2676 89.5859 43.6147V47.0674H91.3788V43.5962C91.3788 42.4133 92.0477 41.6825 93.0943 41.6825C93.5278 41.6825 93.8622 41.763 94.0976 41.8219L94.5125 40.2643C93.8189 40.1652 93.2522 40.1652 93.2522 40.1652L93.2491 40.1621Z" fill="white"/>
<path d="M101.199 43.4137V47.0614H98.7959C97.1423 47.0614 96.4115 46.9437 95.5445 46.3708C94.7951 45.8568 94.3833 44.8907 94.3833 43.6304C94.3833 41.8964 95.5259 40.1406 98.0465 40.1406C100.096 40.1406 101.199 41.2832 101.199 43.4137ZM99.4461 43.6118C99.4461 42.2896 98.9352 41.6393 97.9103 41.6393C96.8853 41.6393 96.1948 42.4073 96.1948 43.5716C96.1948 44.9712 96.8636 45.5843 98.3623 45.5843H99.4461V43.6118Z" fill="white"/>
<path d="M88.6108 43.4137V47.0614H86.2265C84.573 47.0614 83.8422 46.9437 82.9752 46.3708C82.2258 45.8568 81.814 44.8907 81.814 43.6304C81.814 41.8964 82.9566 40.1406 85.4772 40.1406C87.5271 40.1406 88.6108 41.2832 88.6108 43.4137ZM86.7994 43.6118C86.7994 42.271 86.3256 41.6393 85.2821 41.6393C84.2385 41.6393 83.5666 42.4073 83.5666 43.5716C83.5666 44.9712 84.2355 45.5843 85.7342 45.5843H86.7994V43.6118Z" fill="white"/>
<path d="M70.7471 41.1816H71.4655V43.6991H71.481C71.738 43.2532 72.1994 42.9621 72.8466 42.9621C73.8406 42.9621 74.5435 43.7889 74.5342 45.0059C74.5342 46.4365 73.6331 47.1487 72.7382 47.1487C72.1591 47.1487 71.6947 46.9257 71.3974 46.3962H71.3726L71.3386 47.0589H70.71C70.7254 46.7864 70.744 46.3807 70.744 46.0246V41.1816H70.7471ZM71.4655 45.4518C71.4655 45.5416 71.481 45.6344 71.4996 45.7181C71.6389 46.2228 72.0631 46.5696 72.5927 46.5696C73.3544 46.5696 73.8096 45.9472 73.8096 45.0306C73.8096 44.2286 73.3947 43.5412 72.6174 43.5412C72.122 43.5412 71.6575 43.8818 71.5089 44.4361C71.4934 44.5197 71.4686 44.6188 71.4686 44.7334V45.4548L71.4655 45.4518Z" fill="white"/>
<path d="M75.6579 43.0558L76.5343 45.4216C76.6241 45.6879 76.7232 46.0006 76.7913 46.2422H76.8068C76.8811 46.0037 76.9647 45.6972 77.0638 45.4061L77.8565 43.0558H78.6244L77.5313 45.9108C77.0111 47.2857 76.655 47.9886 76.1596 48.419C75.8035 48.7349 75.4474 48.8587 75.2678 48.8897L75.0851 48.2766C75.2678 48.2177 75.5062 48.1032 75.723 47.9205C75.9212 47.7626 76.1689 47.4808 76.3361 47.1092C76.3701 47.0349 76.3949 46.976 76.3949 46.9358C76.3949 46.8955 76.3794 46.8367 76.3454 46.7438L74.8652 43.0527H75.6579V43.0558Z" fill="white"/>
<path d="M131.64 41.1613V46.0043C131.64 46.3604 131.649 46.766 131.674 47.0385H131.021L130.987 46.3418H130.971C130.748 46.7877 130.259 47.1283 129.606 47.1283C128.639 47.1283 127.893 46.3077 127.893 45.0908C127.884 43.7593 128.711 42.9387 129.689 42.9387C130.302 42.9387 130.714 43.2298 130.897 43.5518H130.912V41.1582H131.64V41.1613ZM130.912 44.6635C130.912 44.5737 130.903 44.4467 130.878 44.3569C130.77 43.8924 130.373 43.5116 129.828 43.5116C129.076 43.5116 128.63 44.1742 128.63 45.0598C128.63 45.8711 129.026 46.54 129.813 46.54C130.302 46.54 130.748 46.2179 130.881 45.6699C130.906 45.5708 130.915 45.4717 130.915 45.354V44.6604L130.912 44.6635Z" fill="white"/>
<path d="M133.659 41.9083C133.668 42.156 133.485 42.3542 133.194 42.3542C132.937 42.3542 132.754 42.156 132.754 41.9083C132.754 41.6606 132.943 41.4531 133.21 41.4531C133.476 41.4531 133.655 41.6513 133.655 41.9083H133.659ZM132.847 47.0393V43.0324H133.575V47.0393H132.847Z" fill="white"/>
<path d="M138.198 46.4591C138.198 47.3787 138.016 47.9423 137.629 48.2891C137.238 48.6545 136.678 48.7691 136.173 48.7691C135.669 48.7691 135.164 48.6545 134.842 48.4377L135.024 47.8835C135.288 48.0476 135.703 48.1962 136.198 48.1962C136.941 48.1962 137.489 47.8061 137.489 46.7966V46.3507H137.474C137.251 46.7223 136.82 47.0226 136.201 47.0226C135.207 47.0226 134.498 46.1773 134.498 45.0687C134.498 43.7124 135.384 42.9414 136.3 42.9414C136.994 42.9414 137.375 43.3068 137.548 43.6381H137.564L137.598 43.0343H138.236C138.22 43.3223 138.202 43.6474 138.202 44.1367V46.4622L138.198 46.4591ZM137.48 44.6135C137.48 44.4897 137.471 44.3813 137.44 44.2822C137.307 43.8611 136.951 43.5112 136.421 43.5112C135.727 43.5112 135.229 44.0995 135.229 45.0254C135.229 45.8119 135.625 46.4653 136.412 46.4653C136.858 46.4653 137.263 46.1835 137.421 45.719C137.461 45.5951 137.48 45.4527 137.48 45.3288V44.6073V44.6135Z" fill="white"/>
<path d="M140.168 41.9083C140.178 42.156 139.995 42.3542 139.704 42.3542C139.447 42.3542 139.264 42.156 139.264 41.9083C139.264 41.6606 139.453 41.4531 139.719 41.4531C139.986 41.4531 140.165 41.6513 140.165 41.9083H140.168ZM139.357 47.0393V43.0324H140.085V47.0393H139.357Z" fill="white"/>
<path d="M142.171 42.0715V43.0314H143.214V43.5857H142.171V45.747C142.171 46.2425 142.31 46.5243 142.716 46.5243C142.914 46.5243 143.029 46.5088 143.137 46.4747L143.171 47.0197C143.032 47.0785 142.806 47.1281 142.527 47.1281C142.186 47.1281 141.914 47.0104 141.74 46.8122C141.533 46.5986 141.459 46.2425 141.459 45.7687V43.5826H140.839V43.0283H141.459V42.2913L142.171 42.0684V42.0715Z" fill="white"/>
<path d="M146.843 46.0793C146.843 46.4261 146.859 46.7668 146.908 47.0393H146.246L146.187 46.5345H146.162C145.939 46.8473 145.509 47.1291 144.939 47.1291C144.128 47.1291 143.716 46.5593 143.716 45.9771C143.716 45.0079 144.577 44.4784 146.122 44.4877V44.4041C146.122 44.0728 146.032 43.4783 145.211 43.4783C144.84 43.4783 144.45 43.5928 144.168 43.7755L144.004 43.2956C144.335 43.0788 144.815 42.9395 145.32 42.9395C146.543 42.9395 146.84 43.7755 146.84 44.5775V46.0762L146.843 46.0793ZM146.14 44.9955C145.348 44.9801 144.444 45.1194 144.444 45.8966C144.444 46.3673 144.756 46.5934 145.131 46.5934C145.651 46.5934 145.982 46.262 146.097 45.9214C146.122 45.8471 146.137 45.7635 146.137 45.6892V44.9925L146.14 44.9955Z" fill="white"/>
<path d="M148.018 41.1621H148.745V47.0393H148.018V41.1621Z" fill="white"/>
</g>
<defs>
<clipPath id="clip0_2937_14670">
<rect width="176.267" height="56" fill="white" transform="translate(0.866699)"/>
</clipPath>
</defs>
</svg>
