<svg width="200" height="64" viewBox="0 0 200 64" fill="none" xmlns="http://www.w3.org/2000/svg">
<g clip-path="url(#clip0_2796_145)">
<path d="M89.5967 31.7686C81.8074 31.7686 77.521 26.8217 77.521 20.6696C77.521 13.9202 82.2079 9.38086 89.5967 9.38086C93.177 9.38086 95.6645 10.5298 96.5534 10.9373L95.9139 14.2259C94.6034 13.5689 92.4637 12.673 89.7724 12.673C84.829 12.673 81.8355 15.7999 81.8355 20.5537C81.8355 24.9244 84.453 28.4765 89.7724 28.4765C92.8853 28.4765 95.2218 27.2644 96.1037 26.8217L96.7712 30.1384C95.401 30.7532 93.0926 31.7651 89.5967 31.7651V31.7686Z" fill="white"/>
<path d="M108.618 16.8506L103.868 29.1828L100.119 16.8506H96.0684L100.797 31.3647H103.004L100.274 37.8435H103.998L112.564 16.8506H108.618Z" fill="white"/>
<path d="M178.438 16.85H182.303L182.391 18.7051H182.447C182.907 18.0656 184.228 16.46 186.979 16.46C190.247 16.46 192.632 18.9967 192.632 22.9317V31.3605H188.669V23.1144C188.669 20.648 187.383 19.3867 185.542 19.3867C183.701 19.3867 182.401 20.7253 182.401 23.1144V31.3605H178.442V16.8535L178.438 16.85Z" fill="white"/>
<path d="M132.296 24.0389C132.296 19.4468 135.135 16.4639 139.597 16.4639C144.059 16.4639 147.081 19.0076 147.081 24.2673C147.081 24.4956 147.052 24.9805 147.021 25.1808H136.104C136.424 27.3415 137.953 28.8418 141.013 28.8418C142.671 28.8418 144.214 28.4588 145.464 27.6894L145.524 30.8234C144.245 31.4207 142.531 31.765 140.64 31.765C135.729 31.765 132.296 28.9718 132.296 24.0389ZM143.233 22.5562C143.03 20.1741 141.652 19.1376 139.657 19.1376C137.661 19.1376 136.375 20.1776 136.112 22.5562H143.233Z" fill="white"/>
<path d="M149.382 16.8507H153.253L153.341 18.9167H153.397C153.889 17.7923 155.07 16.4678 157.287 16.4678C157.744 16.4678 158.506 16.5802 158.885 16.6997L158.471 19.788C158.239 19.7107 157.571 19.5877 156.992 19.5877C154.764 19.5877 153.338 21.0985 153.338 24.9176V31.3613H149.375V16.8543L149.382 16.8507Z" fill="white"/>
<path d="M199.631 16.8506H195.668V31.3576H199.631V16.8506Z" fill="white"/>
<path d="M197.636 13.9657C198.941 13.9657 200 12.937 200 11.6679C200 10.3989 198.941 9.37012 197.636 9.37012C196.33 9.37012 195.271 10.3989 195.271 11.6679C195.271 12.937 196.33 13.9657 197.636 13.9657Z" fill="white"/>
<path d="M165.912 31.7687C162.079 31.7687 158.931 29.0984 158.931 24.1304C158.931 19.4329 161.696 16.4395 166.011 16.4395C169.113 16.4395 170.733 18.2383 171.102 18.6424H171.165L171.242 16.8505H175.1V31.3576H171.242L171.165 29.5657H171.102C170.42 30.3071 168.895 31.7687 165.909 31.7687H165.912ZM167.128 28.8314C169.18 28.8314 171.235 27.3593 171.235 24.0988C171.235 21.0596 169.338 19.3802 167.125 19.3802C165.087 19.3802 163.024 20.8313 163.024 24.0988C163.024 27.3663 165.052 28.8314 167.128 28.8314Z" fill="white"/>
<path d="M118.038 29.5654H117.975L117.897 31.3572H114.036V9.8584H117.999V18.6069H118.063C118.446 18.2134 120.153 16.4602 123.09 16.4602C127.405 16.4602 130.209 19.4291 130.209 24.1265C130.209 29.0946 127.061 31.7648 123.227 31.7648C120.241 31.7648 118.72 30.3032 118.034 29.5619L118.038 29.5654ZM126.119 24.102C126.119 20.8344 124.025 19.3974 122.015 19.3974C119.798 19.3974 117.908 21.0593 117.908 24.102C117.908 27.3624 119.96 28.8346 122.015 28.8346C124.095 28.8346 126.119 27.3519 126.119 24.102Z" fill="white"/>
<path d="M58.5871 42.878L51.2756 23.691L42.8784 4.95722L23.6915 12.2652L4.9542 20.6624L12.2657 39.8494L20.6629 58.5831L39.8498 51.2751L58.5871 42.878ZM61.1238 43.9285L40.1274 51.9462L19.6123 61.1233L11.5946 40.1269L2.41748 19.6118L23.4139 11.5941L43.929 2.41699L51.9467 23.4099L61.1238 43.925V43.9285Z" fill="white"/>
<path d="M60.7969 31.7687L46.7009 16.84L31.7687 2.74401L16.84 16.84L2.74401 31.7687L16.84 46.6974L31.7687 60.7933L46.6974 46.6974L60.7933 31.7687H60.7969ZM63.5409 31.7687L47.2103 47.2103L31.7687 63.5409L16.327 47.2138L0 31.7687L16.3305 16.327L31.7687 0L47.2103 16.327L63.5409 31.7687Z" fill="white"/>
<path d="M58.5871 20.6624L39.8498 12.2617L20.6629 4.95371L12.2657 23.691L4.95771 42.878L23.695 51.2751L42.882 58.5831L51.2826 39.8458L58.5906 20.6589L58.5871 20.6624ZM61.1238 19.6118L51.9467 40.1269L43.929 61.1233L23.4139 51.9462L2.41748 43.9285L11.5946 23.4134L19.6123 2.41699L40.1274 11.5906L61.1238 19.6083V19.6118Z" fill="white"/>
<path d="M52.2943 52.2944L52.8845 31.7688L52.2943 11.2467L31.7722 10.6564L11.2466 11.2467L10.6563 31.7723L11.2466 52.2944L31.7722 52.8846L52.2943 52.2944ZM54.2372 54.2338L31.7722 53.6049L9.30713 54.2338L9.93252 31.7688L9.30713 9.30371L31.7722 9.93262L54.2372 9.30371L53.6118 31.7688L54.2372 54.2338Z" fill="white"/>
<path d="M137.352 45.5908C135.163 45.5908 133.375 47.3827 133.375 49.5751C133.375 51.7675 135.163 53.5593 137.352 53.5593C139.541 53.5593 141.308 51.7675 141.308 49.5751C141.308 47.3827 139.541 45.5908 137.352 45.5908ZM137.352 51.7464C136.143 51.7464 135.184 50.7626 135.184 49.5751C135.184 48.3875 136.147 47.4284 137.352 47.4284C138.557 47.4284 139.498 48.391 139.498 49.5751C139.498 50.7591 138.536 51.7464 137.352 51.7464Z" fill="white"/>
<path d="M122.781 45.499C121.91 45.499 121.014 45.6782 120.301 45.9698C119.717 45.6325 119.159 45.499 118.354 45.499C117.349 45.499 116.32 45.6325 115.203 46.012L115.002 46.0787V53.3973H116.991V47.3998C117.395 47.2663 117.708 47.2206 118.108 47.2206C119.092 47.2206 119.384 47.5333 119.384 48.5628V53.3973H121.397V48.4292C121.397 47.983 121.376 47.6914 121.309 47.4209C121.71 47.2874 122.026 47.2206 122.381 47.2206C123.319 47.2206 123.744 47.6457 123.744 48.5628V53.3973H125.733V48.4082C125.733 47.4244 125.578 46.8412 125.128 46.3493C124.636 45.8117 123.811 45.499 122.781 45.499Z" fill="white"/>
<path d="M130.753 51.8237C129.429 51.8237 128.666 51.0015 128.666 49.561C128.666 48.1205 129.436 47.2421 130.771 47.2421C131.048 47.2421 131.284 47.2702 131.505 47.337C131.505 47.337 131.916 47.4529 132.278 47.7375L133.121 46.2935C132.665 45.9105 132.123 45.7454 131.937 45.6997C131.421 45.5451 130.662 45.5205 130.662 45.5205C128.269 45.5205 126.664 47.1824 126.664 49.6488C126.664 52.1153 128.185 53.5558 130.546 53.5558C130.546 53.5558 132.127 53.6261 133.188 52.6388L132.197 51.3669C131.66 51.7077 131.287 51.8237 130.746 51.8237H130.753Z" fill="white"/>
<path d="M104.82 45.5693C101.982 45.5693 100.664 46.8236 100.664 49.4868V53.4043H102.698V49.4658C102.698 48.1236 103.457 47.2944 104.645 47.2944C105.137 47.2944 105.516 47.3858 105.783 47.4525L106.254 45.6853C105.467 45.5729 104.824 45.5729 104.824 45.5729L104.82 45.5693Z" fill="white"/>
<path d="M113.84 49.2586V53.3975H111.113C109.237 53.3975 108.408 53.264 107.424 52.614C106.574 52.0308 106.106 50.9346 106.106 49.5046C106.106 47.537 107.403 45.5449 110.263 45.5449C112.589 45.5449 113.84 46.8414 113.84 49.2586ZM111.851 49.4835C111.851 47.9833 111.271 47.2454 110.108 47.2454C108.945 47.2454 108.162 48.1168 108.162 49.4378C108.162 51.0259 108.921 51.7216 110.621 51.7216H111.851V49.4835Z" fill="white"/>
<path d="M99.5572 49.2586V53.3975H96.8519C94.9757 53.3975 94.1465 53.264 93.1628 52.614C92.3125 52.0308 91.8452 50.9346 91.8452 49.5046C91.8452 47.537 93.1417 45.5449 96.0016 45.5449C98.3275 45.5449 99.5572 46.8414 99.5572 49.2586ZM97.5019 49.4835C97.5019 47.9622 96.9643 47.2454 95.7803 47.2454C94.5962 47.2454 93.8338 48.1168 93.8338 49.4378C93.8338 51.0259 94.5927 51.7216 96.2933 51.7216H97.5019V49.4835Z" fill="white"/>
<path d="M79.2883 46.7256H80.1034V49.582H80.1209C80.4126 49.0761 80.9361 48.7458 81.6704 48.7458C82.7982 48.7458 83.5958 49.6839 83.5852 51.0647C83.5852 52.6879 82.5628 53.496 81.5474 53.496C80.8904 53.496 80.3634 53.243 80.0261 52.6422H79.998L79.9593 53.3941H79.2461C79.2637 53.0849 79.2847 52.6247 79.2847 52.2206V46.7256H79.2883ZM80.1034 51.5706C80.1034 51.6725 80.1209 51.7779 80.142 51.8728C80.3001 52.4455 80.7815 52.839 81.3823 52.839C82.2466 52.839 82.7631 52.1328 82.7631 51.0928C82.7631 50.1828 82.2923 49.4028 81.4104 49.4028C80.8482 49.4028 80.3212 49.7893 80.1526 50.4182C80.135 50.5131 80.1069 50.6255 80.1069 50.7555V51.5742L80.1034 51.5706Z" fill="white"/>
<path d="M84.8604 48.8512L85.8547 51.5354C85.9566 51.8376 86.069 52.1925 86.1463 52.4665H86.1639C86.2482 52.196 86.3431 51.8482 86.4555 51.5179L87.3549 48.8512H88.2263L86.986 52.0906C86.3958 53.6505 85.9917 54.4481 85.4296 54.9365C85.0255 55.2948 84.6215 55.4354 84.4177 55.4705L84.2104 54.7749C84.4177 54.7081 84.6882 54.5781 84.9342 54.3708C85.159 54.1916 85.4401 53.8719 85.6298 53.4503C85.6685 53.366 85.6966 53.2992 85.6966 53.2535C85.6966 53.2079 85.679 53.1411 85.6404 53.0357L83.9609 48.8477H84.8604V48.8512Z" fill="white"/>
<path d="M148.38 46.7037V52.1988C148.38 52.6028 148.391 53.0631 148.419 53.3723H147.678L147.639 52.5817H147.621C147.368 53.0877 146.813 53.4741 146.072 53.4741C144.976 53.4741 144.129 52.5431 144.129 51.1623C144.118 49.6515 145.057 48.7204 146.167 48.7204C146.862 48.7204 147.33 49.0507 147.537 49.4161H147.555V46.7002H148.38V46.7037ZM147.555 50.6774C147.555 50.5755 147.544 50.4315 147.516 50.3296C147.393 49.8026 146.943 49.3704 146.325 49.3704C145.471 49.3704 144.965 50.1223 144.965 51.1272C144.965 52.0477 145.415 52.8066 146.307 52.8066C146.862 52.8066 147.368 52.4412 147.519 51.8193C147.548 51.7069 147.558 51.5944 147.558 51.4609V50.6739L147.555 50.6774Z" fill="white"/>
<path d="M150.671 47.5507C150.681 47.8317 150.474 48.0566 150.144 48.0566C149.852 48.0566 149.645 47.8317 149.645 47.5507C149.645 47.2696 149.859 47.0342 150.161 47.0342C150.464 47.0342 150.667 47.259 150.667 47.5507H150.671ZM149.75 53.3725V48.826H150.576V53.3725H149.75Z" fill="white"/>
<path d="M155.822 52.7149C155.822 53.7584 155.614 54.3979 155.175 54.7914C154.732 55.206 154.097 55.336 153.524 55.336C152.951 55.336 152.378 55.206 152.013 54.96L152.22 54.3311C152.519 54.5173 152.99 54.686 153.552 54.686C154.395 54.686 155.017 54.2433 155.017 53.0979V52.592H154.999C154.747 53.0136 154.258 53.3544 153.555 53.3544C152.428 53.3544 151.623 52.3952 151.623 51.1374C151.623 49.5985 152.628 48.7236 153.668 48.7236C154.455 48.7236 154.887 49.1382 155.084 49.5142H155.101L155.14 48.829H155.864C155.846 49.1558 155.825 49.5247 155.825 50.0798V52.7184L155.822 52.7149ZM155.007 50.6209C155.007 50.4804 154.996 50.3574 154.961 50.245C154.81 49.7671 154.406 49.3701 153.805 49.3701C153.018 49.3701 152.452 50.0377 152.452 51.0882C152.452 51.9806 152.902 52.7219 153.794 52.7219C154.3 52.7219 154.761 52.4022 154.94 51.8752C154.985 51.7347 155.007 51.573 155.007 51.4325V50.6139V50.6209Z" fill="white"/>
<path d="M158.056 47.5507C158.067 47.8317 157.859 48.0566 157.529 48.0566C157.238 48.0566 157.03 47.8317 157.03 47.5507C157.03 47.2696 157.245 47.0342 157.547 47.0342C157.849 47.0342 158.053 47.259 158.053 47.5507H158.056ZM157.136 53.3725V48.826H157.961V53.3725H157.136Z" fill="white"/>
<path d="M160.33 47.7369V48.8261H161.514V49.455H160.33V51.9074C160.33 52.4695 160.488 52.7893 160.948 52.7893C161.173 52.7893 161.303 52.7717 161.426 52.733L161.464 53.3514C161.306 53.4182 161.05 53.4744 160.734 53.4744C160.347 53.4744 160.038 53.3409 159.841 53.116C159.606 52.8736 159.522 52.4695 159.522 51.932V49.4515H158.819V48.8226H159.522V47.9864L160.33 47.7334V47.7369Z" fill="white"/>
<path d="M165.631 52.2833C165.631 52.6769 165.649 53.0633 165.705 53.3725H164.953L164.886 52.7998H164.858C164.605 53.1547 164.117 53.4744 163.47 53.4744C162.55 53.4744 162.083 52.8279 162.083 52.1674C162.083 51.0677 163.059 50.4669 164.812 50.4774V50.3826C164.812 50.0066 164.711 49.332 163.78 49.332C163.358 49.332 162.915 49.462 162.595 49.6693L162.409 49.1248C162.785 48.8788 163.33 48.7207 163.902 48.7207C165.29 48.7207 165.628 49.6693 165.628 50.5793V52.2798L165.631 52.2833ZM164.834 51.0536C163.934 51.0361 162.908 51.1942 162.908 52.0761C162.908 52.6101 163.263 52.8666 163.688 52.8666C164.278 52.8666 164.654 52.4906 164.784 52.1042C164.812 52.0198 164.83 51.925 164.83 51.8407V51.0501L164.834 51.0536Z" fill="white"/>
<path d="M166.963 46.7041H167.789V53.3726H166.963V46.7041Z" fill="white"/>
</g>
<defs>
<clipPath id="clip0_2796_145">
<rect width="200" height="63.5409" fill="white"/>
</clipPath>
</defs>
</svg>
