<svg width="200" height="64" viewBox="0 0 200 64" fill="none" xmlns="http://www.w3.org/2000/svg">
<g clip-path="url(#clip0_2796_17375)">
<path d="M89.595 31.7705C81.8089 31.7705 77.5205 26.8224 77.5205 20.6685C77.5205 13.9175 82.207 9.37891 89.595 9.37891C93.1781 9.37891 95.6635 10.5278 96.5508 10.9373L95.9138 14.2246C94.6057 13.5649 92.4615 12.672 89.7713 12.672C84.8289 12.672 81.8316 15.8001 81.8316 20.5548C81.8316 24.9228 84.4478 28.4774 89.7713 28.4774C92.8824 28.4774 95.2199 27.266 96.1015 26.8224L96.7726 30.1382C95.4019 30.7524 93.0928 31.7648 89.595 31.7648V31.7705Z" fill="#006CB6"/>
<path d="M108.62 16.8525L103.871 29.183L100.117 16.8525H96.0674L100.799 31.367H103.006L100.276 37.845H103.996L112.567 16.8525H108.62Z" fill="#006CB6"/>
<path d="M178.439 16.8524H182.301L182.387 18.7065H182.443C182.904 18.0695 184.224 16.46 186.976 16.46C190.241 16.46 192.63 18.9966 192.63 22.9323V31.3611H188.666V23.1143C188.666 20.6459 187.38 19.389 185.537 19.389C183.695 19.389 182.398 20.7256 182.398 23.1143V31.3611H178.439V16.8524Z" fill="#006CB6"/>
<path d="M132.297 24.0406C132.297 19.4451 135.135 16.4648 139.6 16.4648C144.064 16.4648 147.084 19.0071 147.084 24.2681C147.084 24.4956 147.056 24.979 147.027 25.1781H136.113C136.432 27.3393 137.962 28.8351 141.021 28.8351C142.677 28.8351 144.224 28.454 145.475 27.6862L145.532 30.82C144.252 31.4172 142.54 31.7641 140.646 31.7641C135.732 31.7641 132.303 28.9716 132.303 24.0406H132.297ZM143.234 22.5561C143.029 20.1731 141.653 19.138 139.656 19.138C137.66 19.138 136.375 20.1788 136.107 22.5561H143.228H143.234Z" fill="#006CB6"/>
<path d="M149.382 16.8516H153.255L153.346 18.9161H153.403C153.892 17.79 155.075 16.4648 157.293 16.4648C157.748 16.4648 158.516 16.5786 158.891 16.698L158.476 19.7863C158.243 19.7067 157.577 19.5873 156.997 19.5873C154.768 19.5873 153.346 21.0944 153.346 24.9164V31.3603H149.382V16.8516Z" fill="#006CB6"/>
<path d="M199.631 16.8525H195.667V31.3613H199.631V16.8525Z" fill="#006CB6"/>
<path d="M197.635 13.9685C198.941 13.9685 200.001 12.9398 200.001 11.6708C200.001 10.4018 198.941 9.37305 197.635 9.37305C196.328 9.37305 195.269 10.4018 195.269 11.6708C195.269 12.9398 196.328 13.9685 197.635 13.9685Z" fill="#006CB6"/>
<path d="M165.915 31.7701C162.082 31.7701 158.937 29.1027 158.937 24.1318C158.937 19.434 161.701 16.4424 166.017 16.4424C169.123 16.4424 170.744 18.2453 171.108 18.6434H171.17L171.25 16.8519H175.106V31.3606H171.25L171.17 29.5691H171.108C170.425 30.3084 168.901 31.7701 165.915 31.7701ZM167.132 28.8354C169.185 28.8354 171.239 27.3623 171.239 24.1034C171.239 21.0606 169.339 19.3828 167.126 19.3828C165.09 19.3828 163.026 20.8331 163.026 24.1034C163.026 27.3737 165.051 28.8354 167.132 28.8354Z" fill="#006CB6"/>
<path d="M118.038 29.5637H117.976L117.896 31.3553H114.034V9.8623H117.998V18.6096H118.061C118.442 18.2172 120.154 16.4655 123.089 16.4655C127.405 16.4655 130.204 19.4343 130.204 24.1322C130.204 29.103 127.053 31.7705 123.225 31.7705C120.239 31.7705 118.715 30.3088 118.032 29.5637H118.038ZM126.12 24.0981C126.12 20.8278 124.027 19.3945 122.014 19.3945C119.796 19.3945 117.907 21.0553 117.907 24.0981C117.907 27.357 119.961 28.83 122.014 28.83C124.09 28.83 126.12 27.3456 126.12 24.0981Z" fill="#006CB6"/>
<path d="M58.5865 42.8777L51.2781 23.6881L42.8777 4.95361L23.6881 12.262L4.95361 20.6624L12.262 39.8519L20.6624 58.5865L39.8519 51.2781L58.5865 42.8777ZM61.1231 43.9299L40.1306 51.9492L19.6159 61.1288L11.5966 40.1306L2.41699 19.6102L23.4095 11.5909L43.9299 2.41699L51.9492 23.4095L61.1231 43.9242V43.9299Z" fill="#00A777"/>
<path d="M60.7934 31.7702L46.6942 16.8406L31.7702 2.74705L16.8406 16.8406L2.74705 31.7702L16.8406 46.6998L31.7702 60.7934L46.6998 46.6998L60.7934 31.7702ZM63.5405 31.7702L47.2117 47.2117L31.7702 63.5405L16.3287 47.2117L0 31.7702L16.3287 16.3287L31.7702 0L47.2117 16.3287L63.5405 31.7702Z" fill="#006CB7"/>
<path d="M58.5865 20.6624L39.8463 12.262L20.6624 4.95361L12.262 23.6881L4.95361 42.8777L23.6881 51.2781L42.872 58.5865L51.2724 39.8519L58.5808 20.6624H58.5865ZM61.1231 19.6102L51.9435 40.1249L43.9242 61.1174L23.4095 51.9435L2.41699 43.9242L11.5966 23.4095L19.6102 2.41699L40.1249 11.5909L61.1231 19.6102Z" fill="#00A777"/>
<path d="M52.2963 52.2963L52.8878 31.7702L52.2963 11.2498L31.7702 10.6583L11.2441 11.2498L10.6526 31.7759L11.2441 52.2963L31.7702 52.8878L52.2963 52.2963ZM54.2357 54.2357L31.7702 53.6101L9.30469 54.2357L9.93031 31.7702L9.30469 9.30469L31.7702 9.93031L54.2357 9.30469L53.6101 31.7702L54.2357 54.2357Z" fill="#006CB7"/>
<path d="M137.352 45.5908C135.163 45.5908 133.371 47.3824 133.371 49.5721C133.371 51.7617 135.157 53.5533 137.352 53.5533C139.548 53.5533 141.311 51.7617 141.311 49.5721C141.311 47.3824 139.542 45.5908 137.352 45.5908ZM137.352 51.7447C136.147 51.7447 135.185 50.7607 135.185 49.5721C135.185 48.3834 136.147 47.4222 137.352 47.4222C138.558 47.4222 139.497 48.3834 139.497 49.5721C139.497 50.7607 138.535 51.7447 137.352 51.7447Z" fill="#6F767B"/>
<path d="M122.781 45.5C121.91 45.5 121.012 45.6763 120.301 45.9721C119.721 45.6365 119.158 45.5 118.356 45.5C117.349 45.5 116.32 45.6365 115.205 46.0119L115.006 46.0801V53.3999H116.996V47.4053C117.4 47.2688 117.713 47.2233 118.117 47.2233C119.101 47.2233 119.391 47.5361 119.391 48.5655V53.3999H121.404V48.4347C121.404 47.9854 121.382 47.6954 121.313 47.4281C121.717 47.2916 122.03 47.229 122.388 47.229C123.327 47.229 123.753 47.6556 123.753 48.5712V53.4056H125.744V48.4177C125.744 47.4337 125.59 46.8536 125.141 46.3588C124.646 45.8242 123.821 45.5057 122.792 45.5057L122.781 45.5Z" fill="#6F767B"/>
<path d="M130.755 51.824C129.43 51.824 128.668 50.9993 128.668 49.5604C128.668 48.1215 129.436 47.2399 130.772 47.2399C131.051 47.2399 131.284 47.2683 131.506 47.3366C131.506 47.3366 131.916 47.456 132.28 47.7347L133.121 46.2901C132.661 45.909 132.12 45.7441 131.938 45.6929C131.421 45.5394 130.664 45.5166 130.664 45.5166C128.27 45.5166 126.666 47.1773 126.666 49.6457C126.666 52.1141 128.19 53.553 130.551 53.553C130.551 53.553 132.132 53.6213 133.195 52.6373L132.206 51.3633C131.671 51.7046 131.296 51.8183 130.755 51.8183V51.824Z" fill="#6F767B"/>
<path d="M104.82 45.5684C101.982 45.5684 100.662 46.8196 100.662 49.487V53.4057H102.698V49.4643C102.698 48.122 103.46 47.2917 104.643 47.2917C105.132 47.2917 105.514 47.3827 105.781 47.4509L106.253 45.6821C105.462 45.5684 104.82 45.5684 104.82 45.5684Z" fill="#6F767B"/>
<path d="M113.84 49.2598V53.4003H111.116C109.239 53.4003 108.409 53.2638 107.425 52.6154C106.578 52.0353 106.105 50.9376 106.105 49.5044C106.105 47.5365 107.402 45.5459 110.263 45.5459C112.589 45.5459 113.84 46.8426 113.84 49.2598ZM111.85 49.4816C111.85 47.9801 111.27 47.2465 110.104 47.2465C108.938 47.2465 108.159 48.1166 108.159 49.4418C108.159 51.0286 108.921 51.7225 110.616 51.7225H111.844V49.4873L111.85 49.4816Z" fill="#6F767B"/>
<path d="M99.5538 49.2598V53.4003H96.8466C94.9697 53.4003 94.1394 53.2638 93.1554 52.6154C92.308 52.0353 91.8359 50.9376 91.8359 49.5044C91.8359 47.5365 93.1327 45.5459 95.9935 45.5459C98.3197 45.5459 99.5482 46.8426 99.5482 49.2598H99.5538ZM97.495 49.4816C97.495 47.9574 96.9604 47.2465 95.7717 47.2465C94.583 47.2465 93.8266 48.1166 93.8266 49.4418C93.8266 51.0286 94.5887 51.7225 96.2835 51.7225H97.4893V49.4873L97.495 49.4816Z" fill="#6F767B"/>
<path d="M79.289 46.7285H80.108V49.5836H80.1251C80.4151 49.0774 80.9441 48.7476 81.6721 48.7476C82.7982 48.7476 83.5944 49.686 83.5887 51.0681C83.5887 52.6947 82.565 53.5023 81.5526 53.5023C80.8986 53.5023 80.3696 53.2464 80.0341 52.6492H80.0056L79.9658 53.3999H79.2549C79.2719 53.0871 79.2947 52.6321 79.2947 52.2283V46.7342L79.289 46.7285ZM80.108 51.5742C80.108 51.6766 80.1251 51.779 80.1478 51.8757C80.3071 52.4501 80.7848 52.8425 81.3877 52.8425C82.2522 52.8425 82.7697 52.1373 82.7697 51.0965C82.7697 50.1865 82.2977 49.4073 81.4161 49.4073C80.8531 49.4073 80.3298 49.7941 80.1592 50.4197C80.1421 50.5164 80.1137 50.6244 80.1137 50.7552V51.5742H80.108Z" fill="#6F767B"/>
<path d="M84.8623 48.8504L85.8576 51.5349C85.96 51.8363 86.0738 52.1946 86.1477 52.462H86.1648C86.2501 52.189 86.3411 51.842 86.4548 51.5122L87.3534 48.8447H88.2236L86.9837 52.0866C86.3923 53.645 85.9884 54.4412 85.4254 54.9303C85.0216 55.2886 84.6178 55.4308 84.413 55.4649L84.2083 54.7711C84.413 54.7028 84.686 54.572 84.9306 54.3673C85.1581 54.191 85.4368 53.8668 85.6244 53.4459C85.6643 53.3606 85.6927 53.298 85.6927 53.2468C85.6927 53.1956 85.6756 53.1331 85.6358 53.0307L83.958 48.8447H84.8566L84.8623 48.8504Z" fill="#6F767B"/>
<path d="M148.38 46.7061V52.2002C148.38 52.604 148.392 53.0646 148.42 53.3718H147.681L147.641 52.5812H147.624C147.368 53.0874 146.816 53.4741 146.077 53.4741C144.979 53.4741 144.132 52.5471 144.132 51.165C144.121 49.6522 145.059 48.7251 146.168 48.7251C146.862 48.7251 147.334 49.055 147.539 49.419H147.556V46.7061H148.38ZM147.556 50.6816C147.556 50.5792 147.544 50.437 147.516 50.3347C147.397 49.8057 146.942 49.3792 146.322 49.3792C145.468 49.3792 144.962 50.1299 144.962 51.1366C144.962 52.058 145.412 52.8201 146.305 52.8201C146.856 52.8201 147.362 52.4561 147.516 51.8362C147.544 51.7224 147.556 51.6087 147.556 51.4778V50.6873V50.6816Z" fill="#6F767B"/>
<path d="M150.672 47.5537C150.684 47.8381 150.473 48.0599 150.149 48.0599C149.859 48.0599 149.654 47.8324 149.654 47.5537C149.654 47.275 149.87 47.0361 150.172 47.0361C150.473 47.0361 150.678 47.2636 150.678 47.5537H150.672ZM149.751 53.3777V48.8334H150.576V53.3777H149.751Z" fill="#6F767B"/>
<path d="M155.825 52.7174C155.825 53.7582 155.62 54.4009 155.177 54.7933C154.733 55.2085 154.096 55.3393 153.527 55.3393C152.958 55.3393 152.384 55.2085 152.014 54.9639L152.219 54.3326C152.521 54.5203 152.987 54.6909 153.55 54.6909C154.392 54.6909 155.012 54.2473 155.012 53.1041V52.598H154.995C154.739 53.0188 154.255 53.3601 153.55 53.3601C152.424 53.3601 151.616 52.4046 151.616 51.142C151.616 49.6007 152.623 48.7305 153.664 48.7305C154.454 48.7305 154.881 49.1457 155.08 49.521H155.097L155.137 48.8328H155.859C155.842 49.1627 155.819 49.5267 155.819 50.0841V52.7231L155.825 52.7174ZM155.006 50.6244C155.006 50.4822 154.995 50.3628 154.96 50.249C154.813 49.7713 154.409 49.3732 153.806 49.3732C153.015 49.3732 152.452 50.0386 152.452 51.0908C152.452 51.9837 152.902 52.7231 153.795 52.7231C154.301 52.7231 154.761 52.4046 154.938 51.8756C154.983 51.7335 155.006 51.5742 155.006 51.432V50.613V50.6244Z" fill="#6F767B"/>
<path d="M158.055 47.5537C158.067 47.8381 157.856 48.0599 157.532 48.0599C157.242 48.0599 157.037 47.8324 157.037 47.5537C157.037 47.275 157.253 47.0361 157.555 47.0361C157.856 47.0361 158.061 47.2636 158.061 47.5537H158.055ZM157.134 53.3777V48.8334H157.958V53.3777H157.134Z" fill="#6F767B"/>
<path d="M160.33 47.741V48.833H161.513V49.4643H160.33V51.9156C160.33 52.4787 160.49 52.7972 160.95 52.7972C161.178 52.7972 161.308 52.7801 161.428 52.7403L161.468 53.3603C161.308 53.4285 161.053 53.4797 160.734 53.4797C160.347 53.4797 160.04 53.3489 159.841 53.1214C159.608 52.8768 159.523 52.473 159.523 51.9384V49.4587H158.817V48.8273H159.523V47.9913L160.33 47.7354V47.741Z" fill="#6F767B"/>
<path d="M165.631 52.2858C165.631 52.6782 165.648 53.065 165.705 53.3778H164.954L164.886 52.8033H164.858C164.602 53.1616 164.118 53.4801 163.47 53.4801C162.548 53.4801 162.082 52.8318 162.082 52.172C162.082 51.0743 163.06 50.4715 164.812 50.4828V50.3862C164.812 50.0108 164.71 49.334 163.783 49.334C163.362 49.334 162.918 49.4648 162.6 49.6695L162.412 49.1235C162.787 48.879 163.333 48.7197 163.902 48.7197C165.29 48.7197 165.631 49.6695 165.631 50.5795V52.2801V52.2858ZM164.835 51.0573C163.936 51.0402 162.912 51.1995 162.912 52.081C162.912 52.6156 163.271 52.8716 163.692 52.8716C164.283 52.8716 164.658 52.4962 164.789 52.1095C164.818 52.0241 164.835 51.9331 164.835 51.8478V51.0573Z" fill="#6F767B"/>
<path d="M166.962 46.7061H167.787V53.3718H166.962V46.7061Z" fill="#6F767B"/>
</g>
<defs>
<clipPath id="clip0_2796_17375">
<rect width="200" height="63.5405" fill="white"/>
</clipPath>
</defs>
</svg>
