<svg width="20" height="21" viewBox="0 0 20 21" fill="none" xmlns="http://www.w3.org/2000/svg">
<path d="M9.73828 6C9.15112 6 8.57714 6.17411 8.08893 6.50032C7.60072 6.82653 7.22021 7.29019 6.99551 7.83266C6.77082 8.37513 6.71202 8.97204 6.82657 9.54792C6.94112 10.1238 7.22387 10.6528 7.63906 11.068C8.05425 11.4832 8.58323 11.7659 9.15911 11.8805C9.73499 11.995 10.3319 11.9362 10.8744 11.7115C11.4168 11.4868 11.8805 11.1063 12.2067 10.6181C12.5329 10.1299 12.707 9.55591 12.707 8.96875C12.707 8.18139 12.3943 7.42628 11.8375 6.86953C11.2808 6.31278 10.5256 6 9.73828 6ZM9.73828 11C9.33654 11 8.94382 10.8809 8.60978 10.6577C8.27574 10.4345 8.01539 10.1172 7.86165 9.74608C7.70791 9.37491 7.66768 8.9665 7.74606 8.57247C7.82444 8.17845 8.0179 7.81651 8.30197 7.53244C8.58605 7.24836 8.94798 7.05491 9.342 6.97653C9.73603 6.89815 10.1444 6.93838 10.5156 7.09212C10.8868 7.24586 11.204 7.50621 11.4272 7.84025C11.6504 8.17429 11.7695 8.56701 11.7695 8.96875C11.7695 9.50747 11.5555 10.0241 11.1746 10.4051C10.7937 10.786 10.277 11 9.73828 11ZM9.73828 2.25C7.95699 2.25207 6.24925 2.9606 4.98969 4.22016C3.73013 5.47972 3.0216 7.18746 3.01953 8.96875C3.01953 11.3836 4.13984 13.9484 6.25938 16.3859C7.21603 17.4915 8.2927 18.4872 9.46953 19.3547C9.54831 19.4098 9.64213 19.4394 9.73828 19.4394C9.83443 19.4394 9.92825 19.4098 10.007 19.3547C11.1839 18.4872 12.2605 17.4915 13.2172 16.3859C15.3367 13.9484 16.457 11.3859 16.457 8.96875C16.455 7.18746 15.7464 5.47972 14.4869 4.22016C13.2273 2.9606 11.5196 2.25207 9.73828 2.25ZM9.73828 18.3836C8.56641 17.4789 3.95703 13.6266 3.95703 8.96875C3.95703 7.43547 4.56613 5.96498 5.65032 4.88079C6.73451 3.79659 8.205 3.1875 9.73828 3.1875C11.2716 3.1875 12.742 3.79659 13.8262 4.88079C14.9104 5.96498 15.5195 7.43547 15.5195 8.96875C15.5195 13.6266 10.9102 17.4789 9.73828 18.3836Z" fill="#00BFBD"/>
</svg>
