<svg width="20" height="21" viewBox="0 0 20 21" fill="none" xmlns="http://www.w3.org/2000/svg">
<path d="M17.5266 4.84948C17.4704 4.80564 17.4049 4.77518 17.3352 4.76042C17.2655 4.74567 17.1933 4.747 17.1242 4.76432L12.293 5.97214L7.44922 3.55026C7.34906 3.5003 7.23433 3.48783 7.12578 3.5151L2.12578 4.7651C2.02428 4.7902 1.93409 4.8485 1.86954 4.93075C1.80499 5.01299 1.76979 5.11446 1.76953 5.21901V16.469C1.76953 16.5403 1.78577 16.6106 1.81704 16.6747C1.8483 16.7387 1.89376 16.7948 1.94995 16.8386C2.00614 16.8825 2.07159 16.9129 2.14132 16.9276C2.21104 16.9424 2.28322 16.941 2.35234 16.9237L7.18359 15.7159L12.0273 18.1378C12.1275 18.1877 12.2422 18.2002 12.3508 18.1729L17.3508 16.9229C17.4523 16.8978 17.5425 16.8395 17.607 16.7573C17.6716 16.675 17.7068 16.5736 17.707 16.469V5.21901C17.707 5.14775 17.6908 5.07743 17.6595 5.0134C17.6282 4.94937 17.5828 4.8933 17.5266 4.84948ZM7.70703 4.7276L11.7695 6.75885V16.9604L7.70703 14.9292V4.7276ZM2.70703 5.58698L6.76953 4.57135V14.8534L2.70703 15.869V5.58698ZM16.7695 16.1034L12.707 17.119V6.83464L16.7695 5.81901V16.1034Z" fill="#00BFBD"/>
</svg>
