<svg width="72" height="72" viewBox="0 0 72 72" fill="none" xmlns="http://www.w3.org/2000/svg">
<g clip-path="url(#clip0_3029_15013)">
<path d="M35.8742 9.14906C36.6564 9.14906 37.2905 8.51498 37.2905 7.73283V1.41623C37.2905 0.634078 36.6564 0 35.8742 0C35.0921 0 34.458 0.634078 34.458 1.41623V7.73283C34.4581 8.51498 35.0922 9.14906 35.8742 9.14906Z" fill="url(#paint0_linear_3029_15013)"/>
<path d="M70.4928 48.6541L67.9909 46.1592C67.1009 45.2703 65.9147 44.7807 64.6508 44.7807C63.8426 44.7807 63.0668 44.9818 62.3793 45.3585L57.6647 40.6495L57.8943 40.4202C59.8069 38.5037 59.8062 35.3896 57.8942 33.4796C57.2109 32.7951 56.3583 32.3386 55.4289 32.1465C55.5568 31.7048 55.6242 31.2421 55.6242 30.7687C55.6242 29.4531 55.1132 28.2196 54.1881 27.2983C53.5047 26.6138 52.6522 26.1573 51.7228 25.9652C51.8508 25.5235 51.9182 25.061 51.9182 24.5874C51.9182 23.2717 51.4071 22.0382 50.4806 21.1156C49.7808 20.4167 48.9206 19.9743 48.0174 19.786C48.5006 18.12 48.0877 16.2456 46.7771 14.9327C45.6861 13.8464 44.2057 13.3795 42.7791 13.5309L33.4367 11.7625C32.0119 11.4922 30.2325 11.3135 29.1094 12.3379C29.0385 12.4026 28.9662 12.477 28.895 12.5598C27.1535 11.9251 25.1224 12.3031 23.7278 13.6961C22.8026 14.6201 22.293 15.8531 22.293 17.168C22.293 17.6416 22.3601 18.1041 22.4879 18.546C21.5595 18.7379 20.708 19.1938 20.0269 19.8761C19.0999 20.7993 18.5888 22.0309 18.5878 23.3442C18.5874 23.819 18.6547 24.283 18.7833 24.726C17.8544 24.9175 17.0024 25.3726 16.3192 26.0549C15.3922 26.9809 14.8818 28.2146 14.8818 29.5288C14.8818 30.5354 15.1823 31.4943 15.7391 32.3043C15.036 32.5427 14.392 32.9394 13.8527 33.4781C11.9388 35.3896 11.9381 38.5039 13.8539 40.4231L14.0827 40.6509L9.36757 45.3575C7.61524 44.5325 5.45623 44.8416 4.01018 46.2858L1.50677 48.7822C0.616336 49.6715 0.126117 50.8578 0.125977 52.1224C0.125977 53.3872 0.616336 54.5737 1.50677 55.4631L4.63104 58.5836C5.1844 59.1364 6.08116 59.1358 6.63382 58.5825C7.18662 58.0291 7.18605 57.1323 6.6327 56.5797L3.50843 53.4592C3.15377 53.105 2.95845 52.6302 2.95845 52.1226C2.95845 51.6151 3.15377 51.1404 3.50759 50.7871L6.01113 48.2905C6.63663 47.6657 7.59401 47.5726 8.32104 48.0073C8.37223 48.0842 8.43143 48.1574 8.49921 48.2253C8.62057 48.3469 8.75909 48.4402 8.90618 48.5084L23.263 62.8441C23.3312 62.9927 23.4249 63.1327 23.5471 63.255C23.666 63.3741 23.8017 63.4662 23.9457 63.534C24.2494 63.8773 24.4171 64.3157 24.4171 64.7835C24.4171 65.2911 24.2218 65.7657 23.8671 66.12L21.3661 68.618C20.6271 69.3538 19.4251 69.3536 18.6883 68.6203L6.00303 55.9972C5.44995 55.4441 4.55332 55.4441 4.00024 55.9972C3.44717 56.5503 3.44717 57.4469 4.00024 58L16.6878 70.6253C17.6081 71.5418 18.8166 71.9998 20.0257 71.9998C21.2351 71.9998 22.445 71.5411 23.3664 70.6238L25.8689 68.1241C26.7594 67.2347 27.2497 66.0484 27.2497 64.7835C27.2497 63.8808 26.9987 63.0188 26.532 62.2754L31.8386 56.9753C31.8442 56.9695 31.8499 56.9637 31.8556 56.958C32.4633 56.3298 34.1554 56.4474 35.7919 56.561C36.9545 56.6418 38.2508 56.7317 39.5173 56.5857L45.3285 62.39C44.952 63.0764 44.7511 63.8513 44.7511 64.6582C44.7511 65.9217 45.2414 67.1073 46.1319 67.9967L48.6346 70.4964C49.5244 71.3852 50.7106 71.8749 51.9746 71.8749C53.2383 71.8749 54.4245 71.3854 55.3145 70.4964L70.4937 55.3356C71.3842 54.4463 71.8745 53.2599 71.8745 51.9952C71.8744 50.7305 71.384 49.5442 70.4928 48.6541ZM32.9093 14.5455L39.0528 15.7083L35.3756 19.3841C34.8068 19.1107 34.0271 18.6008 33.1719 17.7826C32.0012 16.6627 31.1637 15.3697 31.0875 14.5632L31.0874 14.5619C31.0819 14.504 31.0804 14.4573 31.0811 14.422C31.2663 14.377 31.7582 14.3271 32.9093 14.5455ZM25.7293 15.7001C26.4468 14.9834 27.5614 14.9007 28.3721 15.4497C28.8315 17.376 30.4747 19.1218 31.2139 19.8292C31.7618 20.3534 33.5198 21.9252 35.2942 22.3572C35.5342 22.7013 35.6649 23.1115 35.6649 23.5443C35.6649 24.1019 35.4504 24.6232 35.0596 25.0136C34.6699 25.404 34.1478 25.6188 33.5892 25.6188C33.0305 25.6188 32.5084 25.404 32.1169 25.0118L32.1161 25.0109L25.7291 18.6355C25.3398 18.2467 25.1253 17.7254 25.1253 17.168C25.1254 16.6104 25.3399 16.0891 25.7293 15.7001ZM22.0286 21.8802C22.4183 21.4899 22.9399 21.2749 23.4976 21.2749C24.056 21.2749 24.5793 21.4904 24.9715 21.8821L30.1144 27.0148C30.9243 27.8259 30.9243 29.1459 30.1172 29.9542C29.7254 30.3444 29.2015 30.5593 28.6419 30.5593C28.0824 30.5593 27.5584 30.3444 27.1683 29.9559L23.2665 26.0549C23.2605 26.0489 23.2539 26.0432 23.2477 26.0371L22.0271 24.817C21.6354 24.4258 21.4198 23.9035 21.4203 23.3463C21.4208 22.791 21.6357 22.2714 22.0286 21.8802ZM18.3209 28.059C18.7108 27.6696 19.2335 27.4551 19.7929 27.4551C20.3477 27.4551 20.8659 27.6665 21.2542 28.0491L25.1678 31.9609C25.558 32.3496 25.773 32.8703 25.773 33.4272C25.773 33.9839 25.558 34.5047 25.1662 34.8949C24.7764 35.2841 24.2543 35.4986 23.6959 35.4986C23.1366 35.4986 22.6128 35.2836 22.2224 34.8949L20.8036 33.4778L20.8026 33.4768L18.321 30.9982C17.9298 30.6074 17.7144 30.0854 17.7144 29.5285C17.7144 28.9718 17.9298 28.4496 18.3209 28.059ZM15.8543 35.482C16.246 35.0908 16.7694 34.8753 17.3281 34.8753C17.8866 34.8753 18.4099 35.0906 18.8014 35.4816L20.2221 36.9006C20.6125 37.2893 20.8274 37.81 20.8274 38.3669C20.8274 38.9238 20.6124 39.4444 20.2192 39.8362C19.8295 40.2264 19.3074 40.4414 18.7488 40.4414C18.1901 40.4414 17.668 40.2265 17.2755 39.8334L17.0976 39.6562C17.0952 39.6538 17.0934 39.6512 17.0911 39.649C17.0884 39.6465 17.0856 39.6442 17.083 39.6417L15.8557 38.4192C15.0459 37.6077 15.0452 36.2902 15.8543 35.482ZM54.9226 41.3862C54.3698 40.8327 53.473 40.8323 52.9198 41.3849L41.4526 52.8348C40.2553 54.0321 38.0859 53.8814 35.9879 53.7358C33.7096 53.5775 31.3537 53.4141 29.8292 54.9792L24.6127 60.1894L11.5679 47.1637L16.1844 42.5556C16.9474 43.0233 17.8279 43.274 18.7491 43.274C20.0652 43.274 21.2993 42.7638 22.2211 41.8404C23.1491 40.9162 23.6603 39.6827 23.6603 38.3671C23.6603 38.3548 23.6594 38.3427 23.6594 38.3305C23.6717 38.3306 23.6839 38.3313 23.6961 38.3313C25.0104 38.3313 26.2436 37.8227 27.1666 36.9008C28.0946 35.9766 28.6058 34.743 28.6058 33.4275C28.6058 33.4152 28.6049 33.4031 28.6049 33.3909C28.6173 33.3909 28.6297 33.3917 28.6422 33.3917C29.9561 33.3917 31.1899 32.8837 32.1191 31.9582C33.0838 30.992 33.561 29.7199 33.5518 28.4505C33.5645 28.4506 33.5771 28.4513 33.5898 28.4513C34.9059 28.4512 36.1399 27.9411 37.0631 27.0162C37.9883 26.0922 38.4979 24.8592 38.4979 23.5443C38.4979 22.6248 38.2479 21.7457 37.7817 20.9843L41.8279 16.9397C42.1294 16.6395 42.5012 16.4511 42.8909 16.3733C42.9331 16.3688 42.9747 16.3621 43.0159 16.3539C43.6411 16.2677 44.2977 16.4606 44.7758 16.9368C45.5857 17.7481 45.5857 19.068 44.7788 19.8763L43.5465 21.1035C43.5424 21.1076 43.538 21.1112 43.534 21.1153L42.1146 22.5323C41.5611 23.0849 41.5606 23.9817 42.1134 24.535C42.6663 25.0885 43.5629 25.089 44.1161 24.5363L45.3534 23.3008L45.3542 23.2999L45.5412 23.1136C46.3533 22.3089 47.669 22.3106 48.4803 23.1208C48.8707 23.5095 49.0857 24.0302 49.0857 24.5871C49.0857 25.1438 48.8707 25.6645 48.4772 26.0563L47.2379 27.2982L45.8183 28.7122C45.2641 29.2641 45.2622 30.1609 45.8142 30.7149C46.3661 31.2691 47.2628 31.2708 47.817 30.719L49.2426 29.2991C49.6323 28.9088 50.1544 28.6939 50.713 28.6939C51.2717 28.6939 51.794 28.9088 52.1865 29.3019C52.5768 29.6908 52.7917 30.2115 52.7917 30.7684C52.7917 31.3251 52.5768 31.8459 52.1842 32.2368L49.7134 34.7086C49.1605 35.2618 49.1606 36.1584 49.7137 36.7113C49.9903 36.9878 50.3526 37.1259 50.715 37.1259C51.0775 37.1259 51.44 36.9875 51.7165 36.7109L52.9274 35.4996C52.9343 35.493 52.9418 35.4872 52.9487 35.4803C53.3383 35.0899 53.8605 34.8751 54.419 34.8751C54.9777 34.8751 55.4999 35.0899 55.891 35.4817C56.7 36.2899 56.6993 37.6075 55.891 38.4173L54.6598 39.647L54.6584 39.6483L54.6571 39.6497L52.703 41.6014C52.1496 42.1542 52.1491 43.051 52.7017 43.6044C52.9783 43.8812 53.3411 44.0198 53.7038 44.0198C54.0659 44.0198 54.4282 43.8817 54.7046 43.6056L55.6605 42.6509L60.2416 47.2267L47.1979 60.2545L42.5244 55.5866C42.8502 55.3771 43.162 55.1307 43.4546 54.838L54.9211 43.3888C55.4748 42.8363 55.4753 41.9395 54.9226 41.3862ZM68.4919 53.3315L53.3127 68.4923C52.9577 68.847 52.4823 69.0423 51.9744 69.0423C51.4665 69.0423 50.9912 68.847 50.6359 68.4922L48.1332 65.9926C47.7786 65.6385 47.5833 65.1646 47.5833 64.6582C47.5833 64.1519 47.7786 63.678 48.1332 63.3238L63.3124 48.163C63.6677 47.8082 64.1428 47.6129 64.6509 47.6129C65.1588 47.6129 65.6342 47.8082 65.9902 48.1638L68.4921 50.6587C68.8467 51.0129 69.0421 51.4874 69.0421 51.995C69.0419 52.5028 68.8466 52.9774 68.4919 53.3315Z" fill="url(#paint1_linear_3029_15013)"/>
<path d="M17.0686 7.9549C17.3451 8.23081 17.7071 8.36862 18.069 8.36862C18.4319 8.36862 18.7948 8.22996 19.0714 7.95279C19.6239 7.39915 19.6231 6.50253 19.0695 5.95001L13.9088 0.79962C13.3553 0.247104 12.4585 0.247807 11.906 0.801588C11.3535 1.35523 11.3543 2.25185 11.908 2.80437L17.0686 7.9549Z" fill="url(#paint2_linear_3029_15013)"/>
<path d="M53.6799 8.36857C54.042 8.36857 54.4042 8.23047 54.6807 7.95443L59.8374 2.80389C60.3908 2.25124 60.3913 1.35447 59.8385 0.801113C59.2859 0.247754 58.3893 0.247192 57.8358 0.799989L52.679 5.95052C52.1257 6.50318 52.1251 7.39994 52.6779 7.9533C52.9545 8.23019 53.3172 8.36857 53.6799 8.36857Z" fill="url(#paint3_linear_3029_15013)"/>
</g>
<defs>
<linearGradient id="paint0_linear_3029_15013" x1="37.2905" y1="4.57453" x2="34.458" y2="4.57453" gradientUnits="userSpaceOnUse">
<stop stop-color="#006CB7"/>
<stop offset="1" stop-color="#00A777"/>
</linearGradient>
<linearGradient id="paint1_linear_3029_15013" x1="71.8745" y1="41.7763" x2="0.125977" y2="41.7763" gradientUnits="userSpaceOnUse">
<stop stop-color="#006CB7"/>
<stop offset="1" stop-color="#00A777"/>
</linearGradient>
<linearGradient id="paint2_linear_3029_15013" x1="19.4852" y1="4.37718" x2="11.4922" y2="4.37718" gradientUnits="userSpaceOnUse">
<stop stop-color="#006CB7"/>
<stop offset="1" stop-color="#00A777"/>
</linearGradient>
<linearGradient id="paint3_linear_3029_15013" x1="60.2528" y1="4.37715" x2="52.2637" y2="4.37715" gradientUnits="userSpaceOnUse">
<stop stop-color="#006CB7"/>
<stop offset="1" stop-color="#00A777"/>
</linearGradient>
<clipPath id="clip0_3029_15013">
<rect width="72" height="72" fill="white"/>
</clipPath>
</defs>
</svg>
