<svg width="72" height="73" viewBox="0 0 72 73" fill="none" xmlns="http://www.w3.org/2000/svg">
<path d="M71.6007 56.9928L68.9046 54.2058L69.4476 50.3662C69.5538 49.6151 69.0453 48.9152 68.2983 48.7842L64.4788 48.1141L64.4091 47.9826V17.9313C64.4091 15.4992 62.4303 13.5205 59.9982 13.5205H49.0107V6.41388C49.0107 2.87732 46.1335 0 42.597 0H21.815C18.2785 0 15.4012 2.87718 15.4012 6.41388V13.5206H4.41376C1.98166 13.5206 0.00292969 15.4993 0.00292969 17.9314V59.9953C0.00278907 62.4273 1.98152 64.406 4.41376 64.406H25.8777C26.6544 64.406 27.2839 63.7764 27.2839 62.9998C27.2839 62.2231 26.6544 61.5935 25.8777 61.5935H4.41376C3.53232 61.5935 2.81542 60.8765 2.81542 59.9952V30.7565C5.73731 35.0387 10.6551 37.8557 16.2189 37.8557H24.2898V44.2752C24.2898 45.0519 24.9193 45.6814 25.696 45.6814H38.7157C39.4924 45.6814 40.122 45.0519 40.122 44.2752V37.8557H48.1928C53.7566 37.8557 58.6744 35.0387 61.5963 30.7565V43.9525C61.3328 43.9187 61.0571 43.9592 60.8013 44.0844L57.3175 45.7873L53.8337 44.0844C53.1521 43.7511 52.3294 44.0185 51.9739 44.6886L50.1565 48.1141L46.337 48.7842C45.59 48.9152 45.0814 49.6151 45.1877 50.3662L45.7308 54.2058L43.0346 56.9928C42.5072 57.538 42.5072 58.4032 43.0346 58.9484L45.5932 61.5935H38.5339C37.7572 61.5935 37.1276 62.2231 37.1276 62.9998C37.1276 63.7764 37.7572 64.406 38.5339 64.406H45.3529L45.1875 65.575C45.0814 66.3261 45.5899 67.026 46.337 67.157L50.1565 67.827L51.9739 71.2526C52.3293 71.9225 53.1524 72.1898 53.8337 71.8568L57.3175 70.1539L60.8013 71.8568C60.9999 71.9539 61.2104 72 61.418 72C61.9226 72 62.4092 71.7275 62.6611 71.2526L64.4785 67.827L68.298 67.157C69.0452 67.026 69.5537 66.3261 69.4475 65.575L68.9044 61.7354L71.6006 58.9484C72.1281 58.4032 72.1281 57.538 71.6007 56.9928ZM18.2137 6.41388C18.2137 4.42812 19.8293 2.81249 21.815 2.81249H42.5967C44.5824 2.81249 46.1979 4.42812 46.1979 6.41388V13.5206H43.3854V7.03122C43.3854 6.25455 42.7559 5.62498 41.9792 5.62498H22.4324C21.6557 5.62498 21.0261 6.25455 21.0261 7.03122V13.5205H18.2137V6.41388ZM40.5729 13.5205H23.8386V8.43747H40.5729V13.5205ZM37.3095 42.8689H27.1022V37.8557H37.3095V42.8689ZM48.193 35.0432H16.2189C8.8281 35.0432 2.81542 29.0304 2.81542 21.6397V17.9313C2.81542 17.05 3.53246 16.333 4.41376 16.333H59.9981C60.8794 16.333 61.5964 17.05 61.5964 17.9313V21.6397C61.5963 29.0304 55.5836 35.0432 48.193 35.0432ZM66.4051 60.2739C66.1035 60.5857 65.9627 61.0191 66.0234 61.4487L66.4722 64.6219L63.3156 65.1756C62.8884 65.2506 62.5195 65.5185 62.3163 65.9017L60.8141 68.7327L57.9349 67.3252C57.7401 67.23 57.5286 67.1824 57.3172 67.1824C57.1059 67.1824 56.8945 67.23 56.6996 67.3252L53.8203 68.7327L52.3182 65.9017C52.115 65.5185 51.7461 65.2506 51.3189 65.1756L48.1623 64.6219L48.611 61.4487C48.6718 61.0192 48.531 60.5857 48.2294 60.2739L46.001 57.9706L48.2294 55.6673C48.531 55.3555 48.6718 54.9221 48.611 54.4925L48.1623 51.3193L51.3193 50.7654C51.7465 50.6905 52.1153 50.4226 52.3185 50.0394L53.8206 47.2083L56.6999 48.6157C57.0896 48.8061 57.5453 48.8061 57.935 48.6157L60.8143 47.2083L62.3164 50.0394C62.5196 50.4226 62.8884 50.6903 63.3156 50.7654L66.4722 51.3192L66.0234 54.4924C65.9627 54.9219 66.1035 55.3554 66.4051 55.6672L68.6334 57.9705L66.4051 60.2739Z" fill="url(#paint0_linear_3029_14551)"/>
<path d="M60.425 54.5077L56.4833 58.4494L54.8195 56.7858C54.2704 56.2367 53.3799 56.2367 52.8308 56.7858C52.2817 57.3349 52.2817 58.2254 52.8308 58.7745L55.4888 61.4325C55.7634 61.7071 56.1233 61.8444 56.4831 61.8444C56.843 61.8444 57.203 61.707 57.4775 61.4325L62.4136 56.4964C62.9627 55.9473 62.9627 55.0568 62.4136 54.5075C61.8647 53.9584 60.9743 53.9584 60.425 54.5077Z" fill="url(#paint1_linear_3029_14551)"/>
<path d="M32.2061 64.4062C32.9827 64.4062 33.6123 63.7767 33.6123 63C33.6123 62.2233 32.9827 61.5938 32.2061 61.5938C31.4294 61.5938 30.7998 62.2233 30.7998 63C30.7998 63.7767 31.4294 64.4062 32.2061 64.4062Z" fill="url(#paint2_linear_3029_14551)"/>
<rect x="72" y="73" width="30" height="30" rx="15" transform="rotate(-180 72 73)" fill="white"/>
<path d="M44.5 54.25C44.6792 53.7158 44.8875 53.1971 45.125 52.6937M47.1562 49.5675C47.5529 49.1067 47.9762 48.6754 48.4262 48.2737M53.25 45.5C52.6934 45.6809 52.149 45.8972 51.62 46.1475M57 56.125C57.3708 56.125 57.7334 56.235 58.0417 56.441C58.35 56.647 58.5904 56.9399 58.7323 57.2825C58.8742 57.6251 58.9113 58.0021 58.839 58.3658C58.7666 58.7295 58.5881 59.0636 58.3258 59.3258C58.0636 59.588 57.7295 59.7666 57.3658 59.839C57.0021 59.9113 56.6251 59.8742 56.2825 59.7323C55.9399 59.5904 55.647 59.35 55.441 59.0417C55.235 58.7333 55.125 58.3708 55.125 58M57 56.125C56.5027 56.125 56.0258 56.3225 55.6742 56.6742C55.3225 57.0258 55.125 57.5027 55.125 58M57 56.125L57 53M55.125 58L49.5 58" stroke="url(#paint3_linear_3029_14551)" stroke-width="1.875" stroke-linecap="round" stroke-linejoin="round"/>
<path d="M57 45.5C63.9037 45.5 69.5 51.0962 69.5 58C69.5 64.9037 63.9038 70.5 57 70.5C50.0963 70.5 44.5 64.9037 44.5 58" stroke="url(#paint4_linear_3029_14551)" stroke-width="1.875" stroke-linecap="round" stroke-linejoin="round"/>
<defs>
<linearGradient id="paint0_linear_3029_14551" x1="71.9962" y1="36" x2="0.00292969" y2="36" gradientUnits="userSpaceOnUse">
<stop stop-color="#006CB7"/>
<stop offset="1" stop-color="#00A777"/>
</linearGradient>
<linearGradient id="paint1_linear_3029_14551" x1="62.8254" y1="57.97" x2="52.4189" y2="57.97" gradientUnits="userSpaceOnUse">
<stop stop-color="#006CB7"/>
<stop offset="1" stop-color="#00A777"/>
</linearGradient>
<linearGradient id="paint2_linear_3029_14551" x1="33.6123" y1="63" x2="30.7998" y2="63" gradientUnits="userSpaceOnUse">
<stop stop-color="#006CB7"/>
<stop offset="1" stop-color="#00A777"/>
</linearGradient>
<linearGradient id="paint3_linear_3029_14551" x1="58.875" y1="52.6875" x2="44.5" y2="52.6875" gradientUnits="userSpaceOnUse">
<stop stop-color="#006CB7"/>
<stop offset="1" stop-color="#00A777"/>
</linearGradient>
<linearGradient id="paint4_linear_3029_14551" x1="69.5" y1="58" x2="44.5" y2="58" gradientUnits="userSpaceOnUse">
<stop stop-color="#006CB7"/>
<stop offset="1" stop-color="#00A777"/>
</linearGradient>
</defs>
</svg>
