<svg width="72" height="72" viewBox="0 0 72 72" fill="none" xmlns="http://www.w3.org/2000/svg">
<g clip-path="url(#clip0_3029_33)">
<path d="M38.6902 13.5294C42.2653 13.5294 45.1737 10.6208 45.1737 7.04602C45.1737 3.47119 42.2652 0.5625 38.6902 0.5625C35.1153 0.5625 32.2069 3.47105 32.2069 7.04602C32.2069 10.621 35.1154 13.5294 38.6902 13.5294ZM38.6902 2.53125C41.1797 2.53125 43.205 4.55653 43.205 7.04602C43.205 9.5355 41.1797 11.5606 38.6902 11.5606C36.2007 11.5606 34.1756 9.53536 34.1756 7.04602C34.1756 4.55667 36.2009 2.53125 38.6902 2.53125ZM17.3716 49.8435C18.2961 49.8435 19.1967 49.364 19.6912 48.5076L23.7086 41.5492C23.9111 41.4069 24.0981 41.2376 24.2631 41.0407L25.958 39.0161C26.3649 38.5301 26.5281 37.9188 26.4177 37.2943C26.3072 36.6701 25.944 36.1517 25.3953 35.835L21.5344 33.606L21.7899 33.1635C22.0603 32.6952 22.1318 32.1483 21.9912 31.6232C21.9162 31.3432 21.7844 31.0892 21.6081 30.871C21.8138 30.6252 21.999 30.3512 22.1607 30.0487L26.7261 21.5114L28.9996 21.4897L26.77 32.5312C26.3913 34.407 26.9464 36.6974 28.6185 37.8709L29.3271 44.9771C29.4302 46.0107 29.2177 46.8523 28.658 47.626L23.0079 55.4375C21.4288 57.6202 22.1517 59.7793 23.4916 60.8614C24.1436 61.3879 24.991 61.7041 25.8842 61.7041C26.9289 61.7041 28.0363 61.2716 28.9667 60.2373L35.5061 52.968C37.169 51.1194 38.0116 48.8701 38.0106 46.2825L38.0085 41.1639L44.7731 43.4056L45.3584 51.82C45.5072 53.9574 47.2481 55.0679 48.902 55.0678H48.9331C50.6093 55.0537 52.3662 53.9051 52.4805 51.7371L52.9687 42.4831C53.2089 37.9274 50.5774 36.7822 47.7915 35.5698C47.4766 35.4327 47.1528 35.292 46.8227 35.142C46.7992 35.1314 46.7753 35.1215 46.751 35.1128L40.1761 32.7295L41.449 26.6324L43.0957 28.5854C44.5509 30.311 46.5114 31.2225 48.767 31.2224H48.7887L55.1809 31.2054C56.8027 31.2012 58.1657 29.9308 58.2838 28.3132L58.3081 27.9804C58.4292 26.3226 57.2145 24.8611 55.5426 24.6531L49.6659 23.9219C48.9095 23.8279 48.328 23.473 47.9379 22.867L45.1643 18.5598C43.5485 16.0504 41.2479 14.4688 38.3266 13.8589L34.4439 13.048C33.2234 12.7932 32.1277 12.7498 30.8913 12.9073L25.1163 13.642C22.5445 13.9693 20.5219 15.4807 19.5673 17.7889L15.7637 26.9869C15.7166 27.1008 15.6737 27.2147 15.6352 27.3284C14.753 27.061 13.7687 27.4226 13.2883 28.2547L13.0328 28.6972L9.17206 26.4682C8.62306 26.1512 7.99236 26.0959 7.39709 26.3122C6.80098 26.5286 6.35281 26.976 6.13554 27.5714L5.22964 30.0513C5.14161 30.2925 5.08887 30.539 5.06679 30.7852L1.04914 37.7442C0.693075 38.361 0.598997 39.0811 0.784059 39.7721C0.969122 40.4632 1.41082 41.0397 2.02761 41.3958L16.0402 49.4859C16.4601 49.7284 16.9191 49.8435 17.3723 49.8435H17.3716ZM36.0414 46.2832C36.0423 48.3986 35.3882 50.1545 34.042 51.651L27.5027 58.9203C26.549 59.9805 25.4221 59.8899 24.7283 59.3295C24.1149 58.8341 23.7138 57.8197 24.6026 56.591L30.2527 48.7796C31.0876 47.6253 31.4351 46.2801 31.2858 44.7815L30.683 38.7363L36.039 40.5112L36.0414 46.2832ZM46.2822 23.9327C46.9932 25.0366 48.0791 25.7084 49.4226 25.8754L55.2992 26.6065C55.9299 26.685 56.3889 27.2254 56.3443 27.8367L56.32 28.1694C56.2757 28.7761 55.7838 29.2348 55.1754 29.2364L48.7832 29.2534H48.7663C47.0862 29.2534 45.6845 28.6016 44.6004 27.3158L41.9596 24.1841L43.0475 18.9726C43.2077 19.1814 43.3622 19.398 43.5086 19.6255L46.2822 23.9327ZM21.3863 18.541C22.0632 16.9041 23.5133 15.8302 25.3645 15.5946L31.1395 14.8598C32.1631 14.7299 33.0309 14.7641 34.0412 14.9749L37.9238 15.7857C39.2322 16.059 40.387 16.5724 41.3818 17.3168L39.9343 24.2508C39.9343 24.2508 39.9343 24.2508 39.9343 24.2509L38.074 33.1625C37.9739 33.642 38.2416 34.1222 38.7022 34.2892L46.0435 36.9502C46.371 37.0986 46.6925 37.2385 47.0055 37.3747C49.6913 38.5435 51.1706 39.1873 51.0024 42.379L50.5141 51.633C50.4576 52.7054 49.6181 53.0928 48.9163 53.0987C48.911 53.0987 48.9057 53.0987 48.9003 53.0987C48.2139 53.0987 47.3951 52.729 47.3222 51.6831L46.6911 42.6102C46.6634 42.2118 46.3977 41.8697 46.0188 41.7441L30.3066 36.5373C28.9354 36.083 28.4127 34.3415 28.6995 32.9205L31.1696 20.6883C31.2284 20.3974 31.1527 20.0953 30.9636 19.8665C30.7764 19.6401 30.4981 19.509 30.2048 19.509C30.2017 19.509 30.1985 19.509 30.1955 19.509L26.1238 19.5479C25.764 19.5512 25.4348 19.7506 25.2652 20.068L20.4246 29.1201C20.2899 29.3721 20.1332 29.5857 19.9577 29.7605L17.4086 28.2888C17.448 28.1108 17.5049 27.9273 17.5827 27.7393L21.3865 18.541H21.3863ZM14.9928 29.2389C15.0081 29.2123 15.0507 29.2008 15.0772 29.2161L20.0623 32.0943C20.0756 32.1019 20.0844 32.1147 20.0892 32.1321C20.0938 32.1497 20.0923 32.1653 20.0847 32.1785L19.8292 32.6212L14.7374 29.6814L14.993 29.2389H14.9928ZM7.07843 30.7267L7.98448 28.2464C8.00262 28.1964 8.01837 28.1808 8.06858 28.1625C8.11878 28.1443 8.141 28.1462 8.18726 28.173L24.4109 37.5396C24.457 37.5661 24.4698 37.5844 24.479 37.6369C24.4882 37.6896 24.4825 37.7111 24.4483 37.7522L22.7535 39.7766C22.4544 40.1337 21.9005 40.2131 21.4648 39.9617L17.2415 37.5234C17.327 37.2611 17.3359 36.9793 17.2626 36.7061C17.1631 36.334 16.9249 36.0232 16.5919 35.831L13.5763 34.09C13.2433 33.8977 12.8549 33.8468 12.4829 33.9465C12.2097 34.0197 11.9701 34.1682 11.7857 34.3735L7.56247 31.9352C7.12667 31.6837 6.91854 31.1642 7.07843 30.7267ZM15.1503 37.2721L14.9938 37.5432L12.8927 36.33L13.0491 36.0591L15.1503 37.2721ZM2.68503 39.2625C2.63595 39.0795 2.66028 38.8898 2.75351 38.7284L5.96145 33.172C6.143 33.3494 6.34859 33.5077 6.57795 33.64L10.8012 36.0783C10.7156 36.3406 10.7068 36.6224 10.7801 36.8958C10.8798 37.2679 11.1179 37.5785 11.4509 37.7708L14.4666 39.512C14.6881 39.6399 14.9342 39.7053 15.1838 39.7053C15.3092 39.7053 15.4354 39.6887 15.5598 39.6555C15.8332 39.5823 16.0728 39.4338 16.2573 39.2285L20.4806 41.6668C20.7099 41.7992 20.9498 41.8982 21.1941 41.9667L17.9863 47.523C17.7922 47.8592 17.3608 47.9752 17.024 47.7807L3.01142 39.6906C2.85012 39.5973 2.73411 39.4453 2.68517 39.2624L2.68503 39.2625ZM71.3083 50.2577C71.3083 50.8013 70.8676 51.2421 70.324 51.2421H56.4337V56.9895C56.4337 57.5332 55.993 57.9739 55.4494 57.9739H41.5591V63.7213C41.5591 64.2649 41.1184 64.7056 40.5747 64.7056H26.6845V70.453C26.6845 70.9966 26.2438 71.4374 25.7001 71.4374H10.8254C10.2817 71.4374 9.84101 70.9966 9.84101 70.453C9.84101 69.9093 10.2817 69.4686 10.8254 69.4686H24.7156V63.7213C24.7156 63.1776 25.1563 62.7369 25.7 62.7369H39.5902V56.9895C39.5902 56.4459 40.0309 56.0052 40.5746 56.0052H54.4648V50.2577C54.4648 49.714 54.9056 49.2733 55.4492 49.2733H70.3238C70.8675 49.2733 71.3082 49.714 71.3082 50.2577H71.3083Z" fill="url(#paint0_linear_3029_33)"/>
</g>
<defs>
<linearGradient id="paint0_linear_3029_33" x1="71.3083" y1="35.9999" x2="0.691406" y2="35.9999" gradientUnits="userSpaceOnUse">
<stop stop-color="#006CB7"/>
<stop offset="1" stop-color="#00A777"/>
</linearGradient>
<clipPath id="clip0_3029_33">
<rect width="72" height="72" fill="white"/>
</clipPath>
</defs>
</svg>
