<svg width="72" height="72" viewBox="0 0 72 72" fill="none" xmlns="http://www.w3.org/2000/svg">
<path fill-rule="evenodd" clip-rule="evenodd" d="M36.0248 21.6057C36.0248 21.1011 36.4334 20.6917 36.9388 20.6917L44.1261 20.6875C44.6323 20.6875 45.0408 21.096 45.0408 21.6006C45.0408 22.1059 44.6323 22.5144 44.1277 22.5162L36.9388 22.5203C36.435 22.5203 36.0248 22.111 36.0248 21.6057ZM25.7186 21.6057C25.7178 21.1011 26.128 20.6917 26.6317 20.6917L33.8206 20.6875C34.3244 20.6875 34.7329 21.096 34.7346 21.6006C34.7346 22.1059 34.3261 22.5144 33.8206 22.5162L26.6333 22.5203C26.128 22.5203 25.7186 22.111 25.7186 21.6057ZM36.0248 18.1443C36.0248 17.639 36.4334 17.2288 36.9388 17.2288L44.1261 17.2255C44.6323 17.2255 45.0408 17.634 45.0408 18.1394C45.0408 18.6439 44.6323 19.0541 44.1277 19.0541L36.9388 19.0574C36.435 19.0574 36.0248 18.6488 36.0248 18.1443ZM25.7186 18.1443C25.7178 17.639 26.128 17.2288 26.6317 17.2288L33.8206 17.2255C34.3244 17.2255 34.7329 17.634 34.7346 18.1394C34.7346 18.6439 34.3261 19.0541 33.8206 19.0541L26.6333 19.0574C26.128 19.0574 25.7186 18.6488 25.7186 18.1443ZM36.0248 14.6821C36.0248 14.1768 36.4334 13.7682 36.9388 13.7666L44.1261 13.7624C44.6323 13.7624 45.0408 14.1718 45.0408 14.6771C45.0408 15.1824 44.6323 15.5911 44.1277 15.5911L36.9388 15.5952C36.435 15.5952 36.0248 15.1867 36.0248 14.6821ZM25.7186 14.6821C25.7178 14.1768 26.128 13.7682 26.6317 13.7666L33.8206 13.7624C34.3244 13.7624 34.7329 14.1718 34.7346 14.6771C34.7346 15.1824 34.3261 15.5911 33.8206 15.5911L26.6333 15.5952C26.128 15.5952 25.7186 15.1867 25.7186 14.6821ZM51.004 32.6107C51.8526 32.6107 52.5598 32.0781 52.7227 31.3147L53.5613 27.3837C53.5704 27.3911 53.5803 27.4019 53.5927 27.4126L57.1252 30.6961C57.341 30.8954 57.3368 31.2601 57.2964 31.5306L56.4188 37.3044H49.6773L46.733 32.6107H51.004ZM45.1781 31.5553C44.762 32.1534 44.7165 32.8315 45.0523 33.3707L48.0223 38.1314C48.4375 38.7964 48.9761 39.1329 49.6219 39.1329H56.4478C57.3428 39.1329 58.0878 38.4902 58.2227 37.6069L59.1043 31.8042C59.2556 30.806 58.9943 29.9358 58.3699 29.3552L54.8374 26.0725C53.6326 24.9528 52.0582 25.6598 51.8153 26.8012L50.9676 30.7819H46.6528C46.0556 30.7821 45.5172 31.064 45.1781 31.5553ZM66.4008 40.7366C66.4611 40.3447 66.4595 39.8111 66.1187 39.4935L61.7047 35.3921C61.5537 35.2511 61.4767 35.1982 61.3308 35.2738L60.2399 40.3884C60.0596 41.2346 59.2689 41.8259 58.3153 41.8259H52.8789C52.7646 41.8259 52.7214 41.8968 52.6754 41.9953L56.3352 47.8602C56.4659 48.0685 56.5585 48.1447 56.5899 48.1447H65.1154C65.2122 48.1447 65.2858 48.0802 65.2999 47.9867L66.4008 40.7366ZM67.3636 38.1546L62.9487 34.0523C61.5694 32.7701 59.8184 33.5973 59.5519 34.8439L58.4602 39.9659C58.4337 39.9808 58.3824 39.9973 58.3155 39.9973H52.879C51.3152 39.9973 50.3628 41.7419 51.0744 42.883L54.7855 48.8289C55.2578 49.5882 55.8656 49.9735 56.5901 49.9735H59.0333V58.1831H54.1056C53.6003 58.1831 53.1917 58.5934 53.1917 59.0971C53.1917 59.6024 53.6003 60.0118 54.1056 60.0118H65.7914C66.2951 60.0118 66.7053 59.6024 66.7053 59.0971C66.7053 58.5934 66.2951 58.1831 65.7914 58.1831H60.862V49.9735H65.1156C66.1204 49.9735 66.9575 49.2524 67.108 48.2606L68.2088 41.0121C68.3867 39.841 68.0856 38.8262 67.3636 38.1546ZM14.8748 30.6961L18.408 27.4126C18.4197 27.4018 18.4295 27.3911 18.4386 27.3837L19.2772 31.3147C19.4394 32.0781 20.1473 32.6107 20.9959 32.6107H25.2669L22.3234 37.3044H15.5812L14.7036 31.5306C14.663 31.2601 14.6599 30.8954 14.8748 30.6961ZM13.7773 37.6071C13.9121 38.4904 14.6581 39.1331 15.5529 39.1331H22.378C23.0247 39.1331 23.5624 38.7964 23.9775 38.1315L26.9475 33.3709C27.5958 32.3306 26.7367 30.7821 25.348 30.7821H21.0323L20.1837 26.8013C19.9396 25.6583 18.3663 24.9538 17.1624 26.0727L13.63 29.3553C13.0056 29.9359 12.7441 30.806 12.8954 31.8043L13.7773 37.6071ZM49.7228 49.9859C49.9826 49.7345 49.9122 49.6162 49.8444 49.5029L40.7159 34.3203C40.5233 33.9993 39.9402 33.6736 39.0717 33.6736H31.686C30.8192 33.6736 30.2362 33.9995 30.0434 34.3203L20.9149 49.5029C20.8471 49.6162 20.7768 49.7345 21.0349 49.9859C21.3607 50.3027 21.9157 50.4837 22.5591 50.4837H48.2C48.8429 50.4837 49.3986 50.3027 49.7228 49.9859ZM42.7134 60.7932H41.5025L39.3371 54.5364C39.209 54.1677 38.8632 53.9211 38.472 53.9211H32.287C31.8967 53.9211 31.55 54.1677 31.4219 54.5364L29.2558 60.7932H28.0458V52.3124H42.7132V60.7932H42.7134ZM42.2832 33.3782C41.715 32.4329 40.4851 31.8448 39.0717 31.8448H31.686C30.2742 31.8448 29.0443 32.4329 28.4761 33.3782L19.3476 48.5617C18.8035 49.4691 18.9606 50.5161 19.7595 51.2953C20.4335 51.9519 21.4268 52.3126 22.5591 52.3126H26.2182V61.7082C26.2182 62.2135 26.6267 62.6222 27.1321 62.6222H29.907C30.2965 62.6222 30.644 62.3757 30.7704 62.0076L32.9373 55.7499H37.8221L39.9874 62.0076C40.1156 62.3757 40.4631 62.6222 40.8526 62.6222H43.6275C44.1328 62.6222 44.5422 62.2137 44.5422 61.7082V52.3126H48.2003C49.3326 52.3126 50.3259 51.9521 50.9991 51.2953C51.798 50.5162 51.956 49.4691 51.4102 48.5617L42.2832 33.3782ZM24.6475 13.2339V23.0488C24.6475 24.167 25.5573 25.0759 26.6739 25.0759H44.0855C45.2021 25.0759 46.1119 24.167 46.1119 23.0488V13.2339C46.1119 12.1158 45.2021 11.2068 44.0855 11.2068H26.6739C25.5573 11.2068 24.6475 12.1158 24.6475 13.2339ZM26.6739 26.9038H44.0855C46.2111 26.9038 47.9406 25.1753 47.9406 23.0488V13.2339C47.9406 11.1075 46.2111 9.37891 44.0855 9.37891H26.6739C24.5492 9.37891 22.8198 11.1075 22.8198 13.2339V23.0488C22.8198 25.1753 24.5492 26.9038 26.6739 26.9038ZM6.69996 47.9869C6.7148 48.0803 6.78766 48.1449 6.8827 48.1449H15.4098C15.4412 48.1449 15.5339 48.0688 15.6645 47.8603L19.3243 41.9955C19.2784 41.897 19.2352 41.826 19.1208 41.826H13.6847C12.7318 41.826 11.9404 41.2346 11.7601 40.3886L10.6692 35.274C10.5214 35.1977 10.451 35.2471 10.2954 35.3922L5.88118 39.4936C5.54048 39.8113 5.53875 40.3447 5.59908 40.7368L6.69996 47.9869ZM17.8945 58.1831H12.9651V49.9735H15.4099C16.1335 49.9735 16.7407 49.588 17.2154 48.8289L20.9257 42.8814C21.6388 41.7405 20.6831 39.9973 19.1211 39.9973H13.6847C13.6186 39.9973 13.5665 39.9808 13.54 39.9659L12.4482 34.8439C12.2911 34.111 11.6806 33.5709 10.8536 33.4337C10.2134 33.3278 9.60718 33.5353 9.05148 34.0523L4.63659 38.1546C3.91457 38.8262 3.61433 39.841 3.79217 41.0121L4.89305 48.2606C5.04267 49.2524 5.8806 49.9735 6.88299 49.9735H11.1373V58.1831H6.20878C5.70507 58.1831 5.29481 58.5934 5.29481 59.0971C5.29481 59.6024 5.70507 60.0118 6.20878 60.0118H17.8945C18.3982 60.0118 18.8083 59.6024 18.8083 59.0971C18.8083 58.5932 18.3982 58.1831 17.8945 58.1831Z" fill="url(#paint0_linear_3029_21072)"/>
<defs>
<linearGradient id="paint0_linear_3029_21072" x1="68.2588" y1="36.0005" x2="3.74219" y2="36.0005" gradientUnits="userSpaceOnUse">
<stop stop-color="#006CB7"/>
<stop offset="1" stop-color="#00A777"/>
</linearGradient>
</defs>
</svg>
